<svg width="334" height="56" viewBox="0 0 334 56" fill="none" xmlns="http://www.w3.org/2000/svg">
<g clip-path="url(#clip0_220_2962)">
<path d="M44.5863 8.23853C32.9818 8.23853 25.1677 17.3891 25.1677 28.4137C25.1677 39.4383 31.815 47.4787 43.5326 47.4787C55.2502 47.4787 62.9511 38.3281 62.9511 27.3035C62.9511 16.2789 56.3039 8.23853 44.5863 8.23853ZM44.8196 45.5481C37.939 45.5481 30.1249 39.9545 30.1249 26.7731C30.1249 16.1587 35.4286 10.1549 43.2992 10.1549C50.1799 10.1549 57.994 15.7485 57.994 28.93C57.994 39.5444 52.6903 45.5481 44.8196 45.5481Z" fill="white"/>
<path d="M108.372 8.23853C96.7675 8.23853 88.9534 17.3891 88.9534 28.4137C88.9534 39.4383 95.6006 47.4787 107.318 47.4787C119.036 47.4787 126.737 38.3281 126.737 27.3035C126.737 16.2789 120.09 8.23853 108.372 8.23853ZM108.605 45.5481C101.725 45.5481 93.9105 39.9545 93.9105 26.7731C93.9105 16.1587 99.2142 10.1549 107.085 10.1549C113.966 10.1549 121.78 15.7485 121.78 28.93C121.78 39.5444 116.476 45.5481 108.605 45.5481Z" fill="white"/>
<path d="M70.744 22.5584V12.149C70.744 11.5621 71.034 11.1025 71.9109 11.1025H77.6247C86.8389 11.1025 87.829 12.6794 88.0058 13.3795C88.1189 14.1362 88.2391 14.4261 88.7058 14.4261C89.2291 14.3129 89.4059 14.1362 89.9292 9.0022H60.7166V10.7489H64.1604C65.6737 10.7489 65.7939 12.9623 65.7939 18.966V43.3347C65.7939 43.858 65.5606 44.2681 64.9171 44.2681H62.1804V46.0148H75.7083V44.2681H72.3847C70.8713 44.2681 70.7511 42.0547 70.7511 36.051V26.7236H78.0985C84.7458 26.7236 85.3256 26.7801 85.3256 28.3571V30.4008H86.9026C86.9026 30.4008 86.8672 25.2173 86.9026 25.2173V20.147H85.3256V22.417C85.3256 24.1637 83.5153 24.397 77.5115 24.397H70.7511V22.5655L70.744 22.5584Z" fill="white"/>
<path d="M12.8844 10.3175C14.7513 10.3175 19.4751 10.9611 19.8782 13.4644C19.9348 13.8745 19.9913 14.3413 20.5783 14.3413C21.045 14.3413 21.2218 13.9948 21.2218 13.5846C21.2218 12.1844 21.1087 10.7277 21.045 9.32752C19.1781 8.45065 16.9081 8.21729 14.4543 8.21729C8.21717 8.21729 1.22338 11.8945 1.22338 18.8883C1.22338 25.8821 8.33739 28.2723 10.9609 29.2057C16.7313 31.306 20.1186 33.286 20.1186 37.7765C20.1186 43.0236 15.3382 45.3572 10.671 45.3572C7.81409 45.3572 2.39019 44.1338 1.57696 40.8667C1.45674 40.3434 1.28703 39.7565 0.700086 39.7565C0.233362 39.7565 0 40.0464 0 40.4566C0 40.9799 0.233362 42.2033 0.876875 45.8168C3.557 46.8634 7.114 47.4504 9.97092 47.4504C19.5883 47.4504 24.0221 41.093 24.0221 36.0227C24.0221 29.7856 20.4651 27.3954 13.0046 24.6516C9.33448 23.2515 4.95717 21.7381 4.95717 17.0143C4.95717 12.7007 8.9809 10.3105 12.8844 10.3105V10.3175Z" fill="white"/>
<path d="M197.453 23.6192V13.2098C197.453 12.6229 197.742 12.1632 198.619 12.1632H204.333C213.547 12.1632 214.537 13.7402 214.714 14.4403C214.834 15.197 214.948 15.4869 215.414 15.4869C215.938 15.3737 216.114 15.197 216.638 10.063H187.425V11.8097H190.869C192.382 11.8097 192.502 14.0231 192.502 20.0268V44.3955C192.502 44.9188 192.269 45.3289 191.626 45.3289H188.889V47.0756H202.417V45.3289H199.093C197.58 45.3289 197.46 43.1155 197.46 37.1118V27.7844H204.807C211.454 27.7844 212.034 27.8409 212.034 29.4179V31.4545H213.604C213.604 31.4545 213.569 26.271 213.604 26.271V21.2007H212.034V23.4707C212.034 25.2174 210.224 25.4507 204.22 25.4507H197.46V23.6192H197.453Z" fill="white"/>
<path d="M319.289 11.1025C321.156 11.1025 325.879 11.746 326.282 14.2493C326.339 14.6595 326.396 15.1262 326.983 15.1262C327.449 15.1262 327.626 14.7797 327.626 14.3695C327.626 12.9694 327.506 11.5126 327.449 10.1124C325.582 9.23556 323.312 9.0022 320.859 9.0022C314.621 9.0022 307.621 12.6723 307.621 19.6732C307.621 26.6741 314.735 29.0572 317.358 29.9906C323.129 32.0909 326.516 34.0709 326.516 38.5614C326.516 43.8085 321.735 46.1421 317.068 46.1421C314.211 46.1421 308.787 44.9187 307.974 41.6517C307.861 41.1284 307.684 40.5414 307.097 40.5414C306.631 40.5414 306.397 40.8314 306.397 41.2415C306.397 41.7648 306.631 42.9882 307.274 46.6088C309.954 47.6554 313.511 48.2424 316.368 48.2424C325.993 48.2424 330.419 41.885 330.419 36.8147C330.419 30.5776 326.862 28.1874 319.402 25.4436C315.732 24.0434 311.354 22.5301 311.354 17.8063C311.354 13.4926 315.378 11.1025 319.282 11.1025H319.289Z" fill="white"/>
<path d="M288.343 10.1055H271.202V11.8521H274.646C276.159 11.8521 276.279 14.0655 276.279 20.0693V44.4379C276.279 44.9612 276.046 45.3714 275.402 45.3714H272.666V47.1181H288.407C300.478 47.1181 307.529 38.314 307.529 27.8763C307.529 22.5726 304.792 10.0913 288.343 10.0913V10.1055ZM288.287 45.032H283.62C281.873 45.032 281.229 45.032 281.229 37.8048V13.2594C281.229 12.2128 281.929 12.2128 285.776 12.2128C294.234 12.2128 302.218 17.4033 302.218 30.2312C302.218 36.8219 298.604 45.039 288.28 45.039L288.287 45.032Z" fill="white"/>
<path d="M255.864 9.0022C251.904 9.0022 248.389 10.07 245.469 11.9086C242.612 10.0346 238.998 9.0022 234.699 9.0022C223.094 9.0022 215.28 18.1528 215.28 29.1774C215.28 40.202 221.927 48.2424 233.645 48.2424C237.605 48.2424 241.12 47.1746 244.04 45.3359C246.897 47.2099 250.511 48.2424 254.81 48.2424C266.415 48.2424 274.229 39.0847 274.229 28.0672C274.229 17.0496 267.581 9.0022 255.864 9.0022ZM234.932 46.3118C228.051 46.3118 220.237 40.7111 220.237 27.5368C220.237 16.9294 225.541 10.9186 233.412 10.9186C236.459 10.9186 239.691 12.0147 242.343 14.3837C238.602 18.0892 236.438 23.3646 236.438 29.1633C236.438 35.4782 238.489 40.6616 242.322 44.0206C240.278 45.5198 237.768 46.3048 234.925 46.3048L234.932 46.3118ZM241.402 27.5439C241.402 22.912 242.414 19.157 244.203 16.3991C246.543 19.4398 248.106 23.8101 248.106 29.7007C248.106 34.3326 247.095 38.0876 245.299 40.8455C242.958 37.8047 241.395 33.4345 241.395 27.5439H241.402ZM256.097 46.3118C253.049 46.3118 249.818 45.2157 247.166 42.8468C250.907 39.1412 253.071 33.8659 253.071 28.0672C253.071 21.7522 251.02 16.5688 247.187 13.2098C249.231 11.7106 251.741 10.9257 254.584 10.9257C261.464 10.9257 269.279 16.5193 269.279 29.7007C269.279 40.3151 263.975 46.3189 256.104 46.3189L256.097 46.3118Z" fill="white"/>
<path d="M185.99 20.8329C185.99 20.8329 185.396 19.5954 183.995 19.4681C183.995 19.4681 185.162 18.2306 184.547 14.9211C183.309 17.0496 180.071 18.8246 178.48 20.0692C179.364 17.58 182.56 17.2264 183.444 14.7443C183.974 12.6158 183.804 10.1336 182.383 8.5284C182.737 10.664 182.206 12.6087 180.608 13.6765C182.56 7.87781 178.225 5.16233 179.724 3.2035C176.351 2.56706 177.122 4.82289 175.644 4.26424C171.917 4.08745 167.837 6.39278 166.239 10.1195C165.885 7.27673 165.532 4.61782 163.219 2.66606C159.846 0.00714925 154.924 -0.898012 150.038 1.01131C150.038 1.01131 154.677 1.35075 156.027 3.93894C157.138 6.06749 160.475 4.95018 161.366 8.14653C162.363 6.0392 160.73 4.97139 160.73 3.73387C161.614 4.79461 162.505 5.68562 162.505 7.10701C162.505 9.23555 160.419 10.8196 157.576 10.3741C157.809 11.4843 159.245 12.0147 159.245 12.0147C159.245 12.0147 158.566 12.9623 157.237 12.9623C157.767 14.0584 158.375 14.6807 159.485 14.3695L157.93 16.5405C160.192 16.5405 163.481 15.7838 165.871 12.0783C165.871 13.8533 166.14 14.4614 167.561 15.699C168.445 16.4556 169.782 16.9436 171.733 16.3354L170.312 15.2676C171.196 14.5604 172.617 14.2069 172.794 12.7855C171.549 12.4319 169.951 12.9623 169.244 11.3641C168.353 9.23555 170.008 6.92315 172.08 6.21599C172.794 5.68562 175.184 5.67148 175.898 6.20185C171.458 6.64736 170.658 8.34454 170.658 9.94271C171.366 9.23555 172.08 8.22432 173.204 8.58497L172.617 10.2963C174.039 9.94271 176.874 9.05877 178.119 11.0034C179.003 12.0713 178.649 13.8462 177.581 14.5534C174.032 14.3766 173.409 18.174 169.683 17.6437C168.396 17.6012 166.889 17.1133 165.913 16.095H162.894C161.741 17.0284 160.277 17.5164 156.331 17.3325C156.331 17.3325 156.798 16.5688 157.35 16.1303H142.796C142.62 18.2589 141.559 19.8783 139.777 21.2997L139.756 23.0039C140.307 22.9756 140.965 22.7918 141.191 23.0181C141.502 23.1948 141.057 26.3912 140.392 26.8296C140.569 26.1649 140.838 24.1707 140.484 23.9586C139.996 23.5908 138.709 24.3121 138.002 24.8425C137.111 24.3121 137.111 23.5979 136.934 22.8908C134.806 23.4211 132.147 22.8908 131.079 21.6462C130.372 26.4336 136.489 29.1703 135.513 33.5335C136.22 33.3567 136.8 32.897 137.464 33.7103C138.483 34.8347 137.019 38.3068 137.019 38.3068C137.507 38.526 138.348 37.7764 138.348 37.7764C138.348 38.13 137.903 38.8372 137.415 38.9291C134.261 39.9898 135.909 35.464 135.909 35.464C134.841 34.8912 134.042 36.0368 134.042 36.0368C133.823 35.0397 132.981 34.4881 132.981 34.4881C132.981 34.4881 131.736 35.6832 132.267 36.6167C132.267 36.6167 130.506 37.2956 130.718 37.9674C130.718 37.9674 132.762 37.5926 134.798 39.7282C135.286 40.6616 137.86 40.8384 139.367 39.1059C139.367 39.1059 140.123 39.417 140.654 38.6816C139.232 37.437 140.654 35.8388 140.838 34.6013C141.545 36.0227 140.215 37.6067 141.46 38.8442C140.93 39.3746 140.307 39.8201 139.77 39.9969C139.657 40.4495 139.918 40.6333 139.841 41.0506C137.846 52.6621 152.916 49.8759 158.403 55.3564C162.901 51.1276 167.186 51.5731 170.998 50.3285C172.596 49.9749 175.078 47.3584 175.262 45.1379C175.262 45.1379 177.334 42.3447 179.109 41.0435C182.129 38.1441 180.587 35.556 184.137 35.8388C183.585 33.6537 181.655 34.0639 181.655 34.0639C182.546 33.1728 183.783 32.1121 183.253 30.5139L180.587 31.2211C180.587 30.1603 180.587 28.9157 179.88 28.3783C178.989 28.7319 178.642 29.7997 177.928 30.5068C177.928 30.5068 177.836 29.4744 178.02 29.0713C177.928 28.5197 177.355 26.9428 177.44 26.4973C177.744 24.9627 178.55 24.5455 180.771 24.7647C179.349 22.813 177.263 24.7647 176.379 24.5879C179.71 20.7764 183.317 25.8891 185.028 26.5963C185.261 23.2868 184.335 22.5796 184.335 22.5796C185.565 22.219 185.975 20.7976 185.975 20.7976L185.99 20.8329ZM135.18 25.9245C136.071 29.4744 140.682 28.7602 141.212 32.4869C139.437 29.6441 135.004 29.6441 135.18 25.9245ZM173.02 43.568C173.02 48.0585 168.551 48.9424 164.598 49.7132C162.038 50.2153 159.613 50.6962 158.502 52.0257L158.34 52.2237L158.17 52.0257C156.968 50.6538 154.281 50.0739 151.438 49.4587C147.089 48.5182 142.591 47.5423 142.591 43.561V18.8388H173.027V43.5751L173.02 43.568ZM176.528 33.0173C175.644 34.0851 174.845 35.4428 175.375 36.6874C176.174 35.4428 176.973 35.4004 177.992 35.4004C180.339 35.1812 179.901 38.8584 178.48 39.9403L174.576 43.667C174.979 42.5639 174.534 42.571 175.644 41.5668L175.997 37.1329L174.93 37.7552C174.357 36.5177 174.046 34.87 175.821 33.095C175.821 33.095 174.442 31.1857 174.222 30.521V30.1674L176.528 33.0243V33.0173ZM174.576 27.162C172.801 23.0817 179.01 20.7764 175.814 16.8729C180.785 20.246 173.685 23.2585 174.576 27.162Z" fill="white"/>
<path d="M149.196 5.15518C150.441 6.56242 149.196 9.05869 147.244 10.1265C148.885 11.4842 149.953 10.5084 149.953 10.5084C149.733 11.6469 151.593 12.8561 151.593 12.8561C151.593 12.8561 153.771 12.453 153.934 11.0317C154.464 11.7459 156.119 11.7176 156.649 11.364C155.228 8.8819 157.18 6.03912 154.698 3.91058C150.441 0.0070715 143.341 1.95883 139.437 5.33197C139.437 5.33197 146 1.45674 149.196 5.15518Z" fill="white"/>
<path d="M135.18 22.1977C138.907 21.5613 139.084 19.3549 139.444 17.4032C139.621 18.1103 139.975 19.5317 139.268 20.246C143.171 18.1174 139.282 12.6369 143.185 11.0388C140.951 9.97803 139.706 11.5338 139.706 11.5338C139.706 11.5338 137.931 9.44766 137.415 9.70931C136.899 9.97096 137.047 12.644 137.047 12.644C137.047 12.644 135.138 10.7347 134.388 11.1802C133.646 11.6186 134.65 14.1503 134.65 14.1503C132.613 14.419 132.345 15.9252 132.875 17.58C132.875 17.58 133.851 15.8333 135.003 15.9818C135.972 16.1091 137.309 17.58 137.132 18.8246C136.955 19.5388 136.156 20.0055 135.534 19.8924C134.643 19.9207 133.716 19.4822 134.155 18.9872C134.508 18.768 135.534 19.6095 136.064 18.8246C136.241 18.2942 136.1 18.0467 135.746 17.6931C134.501 16.2717 133.229 18.4993 132.691 19.0296C130.117 14.815 133.448 13.6199 133.448 13.6199C133.052 10.4235 133.893 10.4235 133.893 10.4235C133.893 10.4235 134.657 9.70224 136.291 10.869C136.467 9.00922 136.821 8.21013 137.839 6.83118C136.906 6.65439 136.333 7.58784 136.333 7.58784C136.022 5.77044 134.749 4.49756 134.749 4.49756C134.749 4.49756 133.094 5.9048 132.691 7.47469C131.623 7.2979 130.251 6.56953 128.964 8.79C134.6 8.92436 129.141 15.6353 130.563 19.5459C131.27 21.3208 133.229 22.3816 135.173 22.2048L135.18 22.1977Z" fill="white"/>
<path d="M139.84 10.4237C139.84 10.4237 140.597 9.56801 142.902 9.97816C144.147 8.37998 145.83 5.94029 147.958 5.40992C146.898 4.34919 145.384 4.39162 143.694 4.62498C140.958 5.15535 138.461 5.98272 137.797 8.73356C139.084 9.12957 139.84 10.4237 139.84 10.4237Z" fill="white"/>
<path d="M164.944 49.1971C166.847 48.8223 168.728 48.4051 170.156 47.5989L167.511 42.571L164.407 48.1929L164.944 49.1971Z" fill="white"/>
<path d="M152.272 48.1929L152.887 49.3315C154.471 49.6921 155.935 50.0811 157.067 50.668L158.333 48.1929L155.377 42.571L152.272 48.1929Z" fill="white"/>
<path d="M164.4 36.8006L161.444 31.1858L158.34 36.8006L161.444 42.571L164.4 36.8006Z" fill="white"/>
<path d="M172.582 32.9749L170.468 36.8006L172.582 40.7324V32.9749Z" fill="white"/>
<path d="M145.335 47.0896L143.815 44.2044L148.171 40.4423L149.316 42.5779L152.195 36.9631L152.308 36.8641L155.384 42.5779L158.34 36.8075L156.473 33.2647L160.631 29.6723L161.444 31.1856L163.488 27.2043L164.768 26.1012L167.512 31.1856L170.467 25.4223L168.926 22.5088L172.681 19.2629H143.044V42.7406L143.03 42.7194V43.575C143.03 45.2298 143.956 46.3046 145.335 47.0896ZM146.735 30.535C146.735 30.535 148.206 31.1715 148.602 30.9735C149.026 30.7613 149.239 29.9976 149.239 29.9976C149.677 30.1673 150.483 30.1461 150.483 30.1461C150.405 30.4855 150.087 32.3241 148.623 32.3241C147.16 32.3241 146.785 30.9523 146.742 30.5421L146.735 30.535ZM152.576 32.3171C151.113 32.3171 150.794 30.4785 150.71 30.139C150.71 30.139 151.516 30.1673 151.954 29.9905C151.954 29.9905 152.166 30.7542 152.591 30.9664C152.979 31.1644 154.45 30.528 154.45 30.528C154.408 30.9381 154.04 32.31 152.576 32.31V32.3171ZM149.274 32.3949C149.274 32.3949 150.038 32.3524 150.596 30.5138C151.148 32.3454 151.919 32.3949 151.919 32.3949C151.742 33.2717 150.787 34.481 150.596 34.5941C150.405 34.481 149.451 33.2647 149.274 32.3949ZM150.596 29.9481C149.465 29.9481 148.546 29.644 148.546 29.2763C148.546 28.9086 149.465 28.6045 150.596 28.6045C151.728 28.6045 152.64 28.9086 152.64 29.2763C152.64 29.644 151.728 29.9481 150.596 29.9481ZM155.822 25.5779C155.822 26.3133 155.419 27.3599 154.5 27.3599C153.581 27.3599 154.373 25.8112 154.373 25.8112C152.032 27.3104 151.905 28.5408 151.905 28.5408C151.466 28.3641 150.71 28.3641 150.71 28.3641C150.688 28.067 152.046 24.3474 154.457 24.3474C155.356 24.3474 155.815 24.6656 155.815 25.5779H155.822ZM150.596 20.3661C151.106 20.8187 152.371 23.9585 152.371 25.0828C152.371 25.0828 151.388 25.9809 150.596 27.8973C149.804 25.9809 148.85 25.0828 148.85 25.0828C148.85 23.9585 150.087 20.8187 150.596 20.3661ZM146.728 24.3474C149.147 24.3474 150.497 28.067 150.476 28.3641C150.476 28.3641 149.72 28.3641 149.281 28.5408C149.281 28.5408 149.161 27.3033 146.813 25.8112C146.813 25.8112 147.605 27.3599 146.693 27.3599C145.781 27.3599 145.37 26.3204 145.37 25.5779C145.37 24.6585 145.823 24.3474 146.728 24.3474Z" fill="white"/>
<path d="M172.582 21.5896L170.468 25.4153L172.582 29.3471V21.5896Z" fill="white"/>
<path d="M158.34 48.1929L159.662 50.6468C160.786 50.0881 162.229 49.7487 163.763 49.4375L164.4 48.1929L161.444 42.571L158.34 48.1929Z" fill="white"/>
<path d="M146.509 47.6555C147.987 48.2495 149.762 48.6526 151.53 49.0345C151.622 49.0557 151.714 49.0769 151.813 49.0981L152.272 48.2L149.309 42.5781L146.502 47.6555H146.509Z" fill="white"/>
<path d="M172.44 44.6147L171.224 46.8211C171.832 46.2554 172.257 45.527 172.44 44.6147Z" fill="white"/>
<path d="M167.504 42.571L170.467 36.8006L167.504 31.1858L164.4 36.8006L167.504 42.571Z" fill="white"/>
<path d="M333.071 47.4433C332.619 47.8958 332.074 48.1221 331.438 48.1221C330.801 48.1221 330.257 47.8958 329.804 47.4433C329.359 46.9907 329.132 46.4462 329.132 45.8027C329.132 45.1591 329.359 44.6217 329.811 44.1762C330.257 43.7307 330.801 43.5044 331.438 43.5044C332.074 43.5044 332.626 43.7307 333.071 44.1762C333.524 44.6217 333.75 45.1662 333.75 45.8027C333.75 46.4391 333.524 46.9907 333.071 47.4433ZM330.03 44.4025C329.641 44.7914 329.451 45.2581 329.451 45.8097C329.451 46.3613 329.641 46.8351 330.023 47.224C330.412 47.613 330.879 47.811 331.431 47.811C331.982 47.811 332.449 47.613 332.838 47.224C333.227 46.8351 333.418 46.3613 333.418 45.8097C333.418 45.2581 333.227 44.7914 332.838 44.4025C332.449 44.0135 331.982 43.8155 331.431 43.8155C330.879 43.8155 330.412 44.0135 330.03 44.4025ZM331.388 44.5298C331.706 44.5298 331.933 44.5581 332.081 44.6217C332.343 44.7278 332.477 44.947 332.477 45.2652C332.477 45.4915 332.392 45.6612 332.23 45.7673C332.145 45.8239 332.018 45.8663 331.862 45.8875C332.06 45.9158 332.208 46.0007 332.3 46.135C332.392 46.2694 332.442 46.4037 332.442 46.531V46.7149C332.442 46.7715 332.442 46.8351 332.442 46.9058C332.442 46.9765 332.456 47.019 332.463 47.0402L332.477 47.0685H332.06C332.06 47.0685 332.06 47.0543 332.06 47.0402C332.06 47.0331 332.06 47.019 332.06 47.0119V46.927L332.053 46.729C332.053 46.4391 331.975 46.2411 331.812 46.1492C331.721 46.0926 331.551 46.0643 331.317 46.0643H330.964V47.0614H330.518V44.5227H331.402L331.388 44.5298ZM331.876 44.9258C331.763 44.8621 331.586 44.8339 331.332 44.8339H330.95V45.7532H331.353C331.544 45.7532 331.685 45.7319 331.777 45.6966C331.954 45.6259 332.039 45.4915 332.039 45.3006C332.039 45.1167 331.982 44.9894 331.869 44.9258H331.876Z" fill="white"/>
</g>
<defs>
<clipPath id="clip0_220_2962">
<rect width="333.75" height="55.3775" fill="white"/>
</clipPath>
</defs>
</svg>
