<svg width="64" height="64" viewBox="0 0 32 32" fill="none" xmlns="http://www.w3.org/2000/svg">
<path d="M12.7545 7.00089C12.1429 7.00089 11.5613 7.01024 10.9759 7.14677C10.4148 7.27769 9.84066 7.38616 9.28519 7.4909C8.92984 7.55823 8.57262 7.62743 8.21914 7.70037C8.17239 7.70972 8.03399 7.73964 8.00781 7.78266C7.99658 7.80136 7.99471 7.85373 8.0209 7.93976C8.18735 8.48401 8.34819 9.03947 8.50342 9.57624C8.74843 10.4253 9.00278 11.3044 9.28893 12.1535C9.70787 13.4028 10.2446 14.6334 10.7646 15.8229C11.0601 16.5018 11.3668 17.205 11.6492 17.9064C11.767 18.2 11.7782 18.46 11.6847 18.8078C11.6342 18.9986 11.5576 19.18 11.4846 19.3577C11.3425 19.6981 11.2097 20.0198 11.2602 20.3676C11.3911 21.2616 11.5332 22.0733 11.696 22.8532C11.8792 23.7285 12.3879 24.0857 13.3025 23.9828C13.6167 23.9473 13.9534 23.9249 14.3648 23.9118C15.0867 23.8893 15.8105 23.8575 16.5324 23.8257C18.139 23.7547 19.8017 23.6836 21.4419 23.706C21.6214 23.7098 21.6551 23.6929 21.7 23.5022C21.9805 22.309 22.0703 22.236 23.3233 22.2304H23.3608C23.3925 22.2285 23.4318 22.2267 23.4767 22.2341C23.6188 22.2585 23.66 22.2341 23.6712 22.2248C23.6862 22.2117 23.7217 22.1593 23.7161 21.9536C23.7067 21.6076 23.7086 21.2579 23.7124 20.9193C23.7161 20.5154 23.7198 20.0983 23.7011 19.6906C23.6637 18.8826 23.8339 18.2729 24.2491 17.7175C24.6737 17.1527 24.6662 16.975 24.2061 16.3728C24.0696 16.1932 23.9106 16.0193 23.7554 15.8528C23.3495 15.4114 22.9306 14.9551 22.7866 14.2855C22.7754 14.2519 22.6706 14.1752 22.6145 14.1359C22.5565 14.0948 22.4986 14.0518 22.4518 14.0087C21.9094 13.5113 21.3353 13.0269 20.7779 12.5593C19.4856 11.4727 18.1521 10.3487 17.1066 8.94596C17.0355 8.84871 16.9645 8.81317 16.8298 8.80382C15.7077 8.7234 15.3224 8.32316 15.2981 7.22158C15.2943 7.07009 15.2681 7.03268 15.2607 7.0252C15.2532 7.01772 15.2176 6.99528 15.0793 7.00089C14.6958 7.01585 14.305 7.01211 13.9272 7.00837C13.7738 7.00837 13.6223 7.00463 13.469 7.00463C13.2857 7.00837 13.1024 7.0065 12.921 7.0065H12.762L12.7545 7.00089Z" fill="#191917"/>
</svg>
