<svg width="59" height="21" viewBox="0 0 59 21" fill="none" xmlns="http://www.w3.org/2000/svg">
<g clip-path="url(#clip0_220_3014)">
<path d="M21.2534 20.2141H17.8501L21.7734 4.92743H25.1801L21.2568 20.2141H21.2534Z" fill="white" fill-opacity="0.3"/>
<path d="M28.6834 11.2641H33.8934L33.0367 14.6074H27.8267L26.3867 20.2141H22.9834L26.9067 4.92743H35.9667L35.1101 8.27076H29.4567L28.6867 11.2674L28.6834 11.2641Z" fill="white" fill-opacity="0.3"/>
<path d="M37.7803 4.92411H43.707C47.267 4.92411 48.4437 6.51411 47.327 10.8541L46.507 14.0541C45.437 18.2341 43.8037 20.2074 40.247 20.2074H33.8604L37.7837 4.92078L37.7803 4.92411ZM38.1737 16.6641H40.607C41.867 16.6641 42.5837 15.6641 42.997 14.0574L43.817 10.8574C44.3237 8.88078 43.9004 8.47411 42.707 8.47411H40.2737L38.1704 16.6674L38.1737 16.6641Z" fill="white" fill-opacity="0.3"/>
<path d="M50.187 17.5841L48.8837 20.2141H45.3403L53.097 4.92743H58.2737L58.2303 20.2141H54.757L54.767 17.5841H50.187ZM54.967 7.98076H54.9337L51.6837 14.6041H54.8503L54.967 7.98076Z" fill="white" fill-opacity="0.3"/>
<path d="M1.63364 19.1608C-0.406361 16.6808 -1.29303 9.81744 4.53031 4.12077C10.247 -1.47256 17.9136 -0.515892 19.6836 5.25411C16.9236 0.0507743 9.94364 0.544107 5.41364 4.89744C1.22364 8.92744 -0.543028 14.9841 1.63364 19.1608Z" fill="white" fill-opacity="0.3"/>
<path d="M18.8968 8.61413C18.5934 6.31413 16.2168 3.4408 11.6101 4.29747C7.79675 5.00413 5.10675 8.54413 5.00342 8.7908C7.89675 7.97747 13.9568 7.51747 16.1734 7.69413C17.1268 7.7708 18.0134 8.0808 18.8968 8.61413Z" fill="white" fill-opacity="0.3"/>
<path d="M4.2903 9.93409C4.04363 10.3108 3.76697 10.9741 3.72363 11.1608L14.4836 10.4541C14.937 10.4541 15.027 9.86409 14.347 9.84076L4.29363 9.93409H4.2903Z" fill="white" fill-opacity="0.3"/>
<path d="M3.11016 14.3475C3.06349 13.9441 3.13349 13.3341 3.17683 13.1208L14.4802 13.8508C14.9335 13.8508 15.0235 14.4408 14.3435 14.4641L3.10683 14.3441L3.11016 14.3475Z" fill="white" fill-opacity="0.3"/>
<path d="M3.53993 11.6841C3.47327 11.8474 3.2666 12.4407 3.2666 12.6274L14.3233 12.5341C15.0033 12.5107 14.9366 11.7774 14.3466 11.7774L3.54327 11.6841H3.53993Z" fill="white" fill-opacity="0.3"/>
<path d="M3.09033 15.1008C3.38367 17.8374 5.327 19.9308 7.79033 20.2441C11.3103 20.6908 14.5537 18.8074 16.3703 16.5874C14.7103 16.7774 12.0003 16.5274 10.5837 16.3974C6.407 16.0208 4.11367 15.2874 3.09367 15.1008H3.09033Z" fill="white" fill-opacity="0.3"/>
</g>
<defs>
<clipPath id="clip0_220_3014">
<rect width="58.3333" height="20" fill="white" transform="translate(0.0834961 0.377441)"/>
</clipPath>
</defs>
</svg>
