<svg width="17" height="16" viewBox="0 0 17 16" fill="none" xmlns="http://www.w3.org/2000/svg">
<path d="M6.34562 8C6.34562 6.71138 7.39059 5.66648 8.67998 5.66648C9.96937 5.66648 11.0149 6.71138 11.0149 8C11.0149 9.28862 9.96937 10.3335 8.67998 10.3335C7.39059 10.3335 6.34562 9.28862 6.34562 8ZM5.08341 8C5.08341 9.9852 6.69359 11.5944 8.67998 11.5944C10.6664 11.5944 12.2766 9.9852 12.2766 8C12.2766 6.0148 10.6664 4.40558 8.67998 4.40558C6.69359 4.40558 5.08341 6.0148 5.08341 8ZM11.5784 4.26306C11.5784 4.4292 11.6276 4.59163 11.7199 4.7298C11.8122 4.86797 11.9434 4.97569 12.097 5.03933C12.2505 5.10297 12.4195 5.11967 12.5826 5.08732C12.7456 5.05498 12.8954 4.97504 13.013 4.85761C13.1306 4.74018 13.2107 4.59054 13.2432 4.42761C13.2757 4.26467 13.2591 4.09577 13.1956 3.94226C13.132 3.78874 13.0244 3.65751 12.8862 3.56515C12.748 3.4728 12.5855 3.42347 12.4193 3.4234H12.4189C12.1961 3.4235 11.9824 3.51199 11.8248 3.66943C11.6672 3.82686 11.5786 4.04037 11.5784 4.26306ZM5.85028 13.6978C5.1674 13.6668 4.79624 13.5531 4.54958 13.457C4.22256 13.3298 3.98924 13.1783 3.74393 12.9334C3.49861 12.6886 3.34676 12.4556 3.22001 12.1288C3.12386 11.8824 3.01011 11.5114 2.97907 10.8289C2.94511 10.091 2.93833 9.86939 2.93833 8.00006C2.93833 6.13072 2.94567 5.90969 2.97907 5.17122C3.01017 4.48874 3.12475 4.11842 3.22001 3.87129C3.34732 3.54447 3.49895 3.31129 3.74393 3.06612C3.9889 2.82095 4.222 2.66919 4.54958 2.54252C4.79612 2.44642 5.1674 2.33274 5.85028 2.30172C6.58858 2.26778 6.81036 2.26101 8.67998 2.26101C10.5496 2.26101 10.7716 2.26834 11.5105 2.30172C12.1934 2.3328 12.564 2.44732 12.8112 2.54252C13.1382 2.66919 13.3716 2.82129 13.6169 3.06612C13.8622 3.31095 14.0135 3.54447 14.1408 3.87129C14.2369 4.11769 14.3507 4.48874 14.3817 5.17122C14.4157 5.90969 14.4225 6.13072 14.4225 8.00006C14.4225 9.86939 14.4157 10.0904 14.3817 10.8289C14.3506 11.5114 14.2363 11.8823 14.1408 12.1288C14.0135 12.4556 13.8619 12.6888 13.6169 12.9334C13.3719 13.178 13.1382 13.3298 12.8112 13.457C12.5647 13.5531 12.1934 13.6668 11.5105 13.6978C10.7722 13.7318 10.5504 13.7385 8.67998 13.7385C6.80952 13.7385 6.58836 13.7318 5.85028 13.6978ZM5.79229 1.04239C5.04665 1.07633 4.53714 1.19449 4.09217 1.36753C3.63135 1.54622 3.24125 1.78596 2.85142 2.17494C2.4616 2.56391 2.22233 2.9544 2.04353 3.41494C1.87039 3.85992 1.75216 4.36885 1.7182 5.11404C1.68368 5.86041 1.67578 6.09902 1.67578 8C1.67578 9.90098 1.68368 10.1396 1.7182 10.886C1.75216 11.6312 1.87039 12.1401 2.04353 12.5851C2.22233 13.0453 2.46165 13.4363 2.85142 13.8251C3.24119 14.2139 3.63135 14.4533 4.09217 14.6325C4.53798 14.8055 5.04665 14.9237 5.79229 14.9576C6.5395 14.9915 6.77786 15 8.67998 15C10.5821 15 10.8209 14.9921 11.5677 14.9576C12.3134 14.9237 12.8225 14.8055 13.2678 14.6325C13.7283 14.4533 14.1187 14.214 14.5085 13.8251C14.8984 13.4361 15.1371 13.0453 15.3164 12.5851C15.4896 12.1401 15.6084 11.6312 15.6418 10.886C15.6757 10.139 15.6836 9.90098 15.6836 8C15.6836 6.09902 15.6757 5.86041 15.6418 5.11404C15.6078 4.36879 15.4896 3.85964 15.3164 3.41494C15.1371 2.95468 14.8977 2.56453 14.5085 2.17494C14.1193 1.78534 13.7283 1.54622 13.2683 1.36753C12.8225 1.19449 12.3133 1.07577 11.5682 1.04239C10.8214 1.00846 10.5827 1 8.68054 1C6.77842 1 6.5395 1.0079 5.79229 1.04239Z" fill="#ffffff"/>
</svg>
