<svg width="64" height="64" viewBox="0 0 32 32" fill="none" xmlns="http://www.w3.org/2000/svg">
<path d="M23.4382 20.1695C23.7784 19.9484 23.8333 20.0127 23.8975 19.639C23.9393 19.3961 23.9657 19.2419 24.2729 19.1341C24.4384 19.076 24.3526 18.9646 24.2519 18.8712C24.1036 18.7337 24.1115 18.6248 24.1931 18.5263C24.2864 18.4136 24.4777 18.3694 24.5515 18.2767C24.5838 18.236 24.6159 18.2129 24.6472 18.2031C24.7605 18.1676 24.8158 18.2602 24.8245 18.358C24.8319 18.4405 24.8131 18.5687 24.8128 18.5698C24.7844 18.6748 24.8266 18.6234 24.8983 18.6025C24.9298 18.5933 24.9609 18.5886 24.9927 18.5919C25.112 18.6043 25.0461 18.6662 25.1701 18.5907C25.4523 18.4186 25.701 18.3289 25.8829 18.2633C25.9666 18.233 25.9359 18.2282 25.9145 18.145C25.8279 17.8079 25.8933 17.8953 26.0605 17.7064C26.1343 17.6231 26.1415 17.5404 26.0913 17.4051C26.0536 17.3033 26.0212 17.2159 26.0935 17.1143C26.1664 17.012 26.1609 17.0008 26.1189 16.8862C26.0404 16.672 26.0219 16.5522 26.0974 16.3372C26.2146 16.0033 26.4403 15.9368 26.152 15.5855C25.9995 15.3996 25.9728 15.3398 25.9605 15.1024C25.951 14.9204 25.7477 14.9534 25.7499 14.7282C25.7515 14.567 25.7317 14.4645 25.6984 14.3939C25.5549 14.0895 25.3393 14.345 25.2579 13.5931L25.0133 11.3346C24.9977 11.1902 25.0349 11.0433 24.846 11.0512C24.7063 11.057 24.5078 11.0652 24.2278 10.9439C23.6774 10.7053 23.386 10.4315 22.8135 10.6521C22.5429 10.7563 22.3183 10.8578 22.0408 10.7172C21.974 10.6833 21.9341 10.6631 21.7107 10.9816C21.6049 11.1326 21.4378 11.1368 21.2944 11.0362C21.2368 10.9958 21.1832 10.9388 21.1404 10.8747C21.0494 10.7381 21.0722 10.7622 20.9913 10.8405C20.9628 10.8681 20.9318 10.8921 20.898 10.9098C20.797 10.963 20.7034 10.9575 20.627 10.8122C20.6057 10.7346 20.5785 10.6726 20.4774 10.9139C20.3939 11.1132 20.1706 11.0719 20.0625 10.8839C20.0307 10.8286 20.0295 10.7964 19.933 10.8366C19.7692 10.8987 19.5811 10.97 19.4658 10.7249C19.4375 10.6667 19.4237 10.6887 19.3758 10.7377C19.2975 10.8156 19.2203 10.86 19.1514 10.8764C19.0153 10.9089 18.8983 10.8377 18.8656 10.7009C18.8397 10.5925 18.8211 10.5868 18.8032 10.5813C18.7411 10.5622 18.6808 10.5436 18.633 10.4137C18.615 10.3647 18.5653 10.3717 18.5208 10.388C18.4875 10.4002 18.4548 10.4169 18.4284 10.4303C18.2493 10.521 18.1419 10.5691 17.9471 10.4274C17.909 10.3997 17.8673 10.4124 17.8222 10.4261C17.7218 10.4566 17.6132 10.4896 17.4556 10.3934C17.3691 10.3406 17.3266 10.3207 17.2148 10.3321C16.9562 10.3584 16.9278 10.2759 16.8777 10.1308C16.819 9.96058 16.8091 9.93877 16.6423 9.99985C16.5321 10.0402 16.4587 10.0015 16.3834 9.96197C16.3459 9.94222 16.3073 9.92191 16.2566 9.94627C16.0143 10.0627 15.9524 9.95972 15.8764 9.83301C15.8544 9.7965 15.8299 9.75574 15.7926 9.73837C15.6187 9.65771 15.541 9.70594 15.5365 9.46671C15.536 9.43743 15.5352 9.39942 15.5324 9.34356L15.3744 6.20883C15.3677 5.97138 15.3893 5.99684 15.103 6.00498L11.0466 6.11986C10.8342 6.12667 10.8398 6.0954 10.8513 6.32142C10.852 8.90897 10.8039 11.5409 10.8556 14.1229C10.8672 14.7029 10.8689 14.7876 10.0736 14.8002L5.3224 14.7657C5.28104 14.7654 5.24585 14.7649 5.21388 14.7645C5.01492 14.7619 5.00194 14.7618 5.00004 14.8306C4.99888 14.8731 5.02059 14.8822 5.05568 14.8967C5.30524 15.0001 5.43376 15.1899 5.58736 15.403C5.70799 15.5703 5.81922 15.7246 5.91459 15.7355C6.07399 15.7537 6.19671 15.9335 6.29692 16.0803C6.60879 16.5373 6.67023 16.7242 7.21768 17.0511C7.70344 17.3412 8.00392 17.5956 8.1756 18.166C8.33315 18.6894 8.2567 19.0229 8.71771 19.454C8.95306 19.6741 9.2765 19.8817 9.61047 20.0483C10.5029 20.4934 10.792 20.673 11.1144 19.698C11.3376 19.0229 11.332 18.8776 12.0458 18.8093C12.4511 18.7705 12.8815 18.7004 13.2736 18.845C13.5707 18.9545 13.8312 19.178 14.1259 19.5935C14.4245 20.0146 14.8899 19.8844 15.1075 20.6235C15.2489 21.1038 15.4819 21.3717 15.7241 21.6501C15.9503 21.9102 16.184 22.1789 16.3694 22.6308C16.4225 22.7603 16.5168 22.7878 16.6112 22.8154C17.0286 22.9373 17.2824 23.5493 17.2545 23.9586C17.2471 24.0679 17.2406 24.1619 17.3005 24.1898C17.6866 24.3699 17.6671 24.6306 17.6507 24.8491C17.643 24.9523 17.6365 25.0389 17.7321 25.0605C18.0466 25.1318 18.1805 25.2507 18.2913 25.3491C18.3637 25.4135 18.4231 25.4663 18.5344 25.473C18.8689 25.4934 19.0555 25.5896 19.223 25.6759C19.3782 25.7559 19.5142 25.826 19.7593 25.7938C19.9922 25.7632 20.3428 25.7367 20.5044 25.9468C20.5823 26.0482 20.6946 25.9842 20.8014 25.9232C21.0357 25.7895 20.8156 25.8855 20.6701 25.5031C20.6341 25.4084 20.6138 25.3085 20.5951 25.1947C20.5846 25.1306 20.5789 25.0755 20.5738 25.0262C20.5568 24.8626 20.5191 24.819 20.4628 24.6829C20.3706 24.4597 20.2496 24.1668 20.3932 23.9238C20.4694 23.7949 20.3764 23.7135 20.3196 23.6639C20.199 23.5584 20.1767 23.432 20.3608 23.384C20.4735 23.3546 20.4767 23.3959 20.5283 23.2745C20.585 23.1409 20.6425 22.9045 20.6575 22.8249C20.6874 22.6666 20.6747 22.6891 20.6262 22.5457C20.5626 22.3579 20.5891 22.3034 20.6791 22.2662C20.828 22.2049 20.8122 22.2773 20.804 22.0356C20.796 21.8016 20.8053 21.4858 21.1428 21.5819C21.3286 21.6348 21.3345 21.6199 21.3452 21.5929C21.42 21.4032 21.5745 21.3162 21.753 21.236C21.8581 21.1887 21.8684 21.1324 21.7769 21.0708C21.7201 21.0327 21.6825 20.9609 21.6724 20.856C21.6556 20.6823 21.6786 20.3963 21.9064 20.5927C21.9441 20.6252 22.0093 20.6815 22.0933 20.6116C22.205 20.5186 22.3489 20.56 22.488 20.6C22.6233 20.6392 22.6264 20.6546 22.7214 20.5438C22.8009 20.4513 22.8924 20.4282 22.9702 20.4031C23.1314 20.3511 23.2957 20.2622 23.4382 20.1695Z" fill="#191917"/>
</svg>
