<svg width="32" height="32" viewBox="0 0 32 32" fill="none" xmlns="http://www.w3.org/2000/svg">
<path d="M4 21.1051H8.17087C8.12718 20.8538 8.21748 20.5997 8.40971 20.4238C8.5466 20.34 8.72427 20.34 8.86117 20.4238C8.94854 20.4712 9.0301 20.5243 9.11165 20.5801C9.28932 20.7169 9.51942 20.7728 9.74369 20.7365C10.4573 20.7365 22.4485 20.4992 22.935 20.4573C23.0777 20.4461 23.2175 20.4014 23.3398 20.3288C23.5786 20.1976 23.8437 20.1138 24.1175 20.0831C24.3534 20.0608 24.5748 19.963 24.7466 19.8039C24.8544 19.7034 24.9796 19.6252 25.1194 19.5693C25.3903 19.4716 25.4107 19.4632 25.6029 19.1561C25.8214 18.7512 26.1913 18.4384 26.6369 18.2821C26.9282 18.1983 27.1874 18.0419 27.3942 17.8297C27.5194 17.7013 27.6534 17.584 27.799 17.4807C27.8602 17.4332 27.9388 17.3718 28 17.3187C27.965 17.2797 27.9214 17.2378 27.8835 17.1987C27.5573 16.8999 27.266 16.5704 27.0097 16.2158C26.7621 15.7886 26.3369 15.0849 26.2087 14.9313C25.9961 14.6745 26.0107 14.3059 26.2553 13.8368C26.2845 13.7809 26.1709 13.5883 25.833 13.3565C25.6699 13.2336 25.5825 13.041 25.5913 12.8427C25.5913 12.8288 25.5913 12.812 25.5913 12.798C25.5563 12.7952 25.5214 12.7952 25.4864 12.798C25.2883 12.8204 25.1078 12.9069 24.9709 13.0466C24.8049 13.2336 24.5456 13.3258 24.2922 13.2839C24.1175 13.242 23.9485 13.1778 23.7913 13.0912C23.535 12.9767 23.3544 12.8986 23.2728 12.9767C22.7806 13.3984 21.9301 13.0075 21.5981 12.7534L21.566 12.7282C21.2427 12.4825 20.5699 11.9687 20.6194 11.4214C20.5874 11.3488 20.3427 11.2818 20.2116 11.2455C20.0515 11.2064 19.8971 11.1506 19.7485 11.0808C19.6058 10.9998 19.4369 10.9803 19.2767 11.0222C19.2767 11.0222 19.2359 11.0473 19.2272 11.1283C19.2359 11.2735 19.2796 11.4131 19.3524 11.5387C19.4748 11.7174 19.5039 11.938 19.4252 12.1391C19.3524 12.2647 19.2184 12.3513 19.0699 12.3652L18.9883 12.382C18.8573 12.5495 18.6796 12.6808 18.4757 12.7562C18.1495 12.9041 17.7738 12.9041 17.4476 12.7562C17.4243 13.1694 17.3136 13.7446 16.7806 13.915C16.3903 13.9987 16.067 14.2556 15.9068 14.6074C15.866 14.7415 15.834 14.8755 15.8078 15.0123C15.732 15.3921 15.6592 15.7495 15.3825 15.8807C15.2456 15.9477 15.0854 15.9477 14.9485 15.8807C14.5641 15.6964 14.1709 15.5093 13.9961 15.1882C13.9204 15.2469 13.8592 15.3195 13.8184 15.406C13.7282 15.716 13.5854 16.1962 13.2068 16.2744C12.9883 16.3079 12.767 16.2158 12.6447 16.0371C12.4524 15.8165 12.3359 15.7942 12.3184 15.8025C12.301 15.8109 12.1903 15.8584 12.1117 15.9533C11.7476 16.4029 11.4243 16.6067 11.1155 16.5732C10.8942 16.5425 10.7078 16.4001 10.632 16.199C10.5825 16.0929 10.4893 16.012 10.3757 15.9784C10.0874 15.9254 9.78738 15.9812 9.53981 16.1376C9.31553 16.2633 9.06214 16.3359 8.8 16.347C8.6165 16.347 8.60485 16.347 8.50874 16.5425C8.47379 16.6151 8.50874 16.6877 8.67476 16.8748C8.8466 17.0088 8.92524 17.2238 8.88155 17.4332C8.79709 17.665 8.52039 17.746 8.25825 17.7934C7.98155 17.8437 7.70194 17.8716 7.42233 17.8772C7.34369 17.8772 7.24757 17.8772 7.19223 17.8912C7.18932 17.9386 7.18932 17.9861 7.19223 18.0336C7.21845 18.229 7.27961 18.4161 7.3699 18.592C7.47184 18.8238 7.56796 19.0416 7.42233 19.2398C7.29709 19.3683 7.11359 19.4269 6.93301 19.399C6.60971 19.3655 6.30388 19.2398 6.05922 19.036C5.96893 18.9522 5.85825 18.8964 5.73592 18.8713C5.47961 18.8713 4.97573 19.022 4.92039 19.3878C4.89709 19.5777 4.9 19.7676 4.92621 19.9574C4.96408 20.273 5.0165 20.7058 4.61748 20.8147C4.39903 20.8845 4.19223 20.9822 4 21.1051Z" fill="#191917"/>
</svg>
