<svg width="64" height="64" viewBox="0 0 32 32" fill="none" xmlns="http://www.w3.org/2000/svg">
<path d="M15.3989 23.5094C15.4921 23.5051 15.583 23.5267 15.6654 23.5701C15.7629 23.6264 15.8344 23.7239 15.8582 23.8344C15.8734 23.8994 15.8842 23.9665 15.8929 24.0337C15.9145 24.2157 15.9297 24.3349 16.2677 24.5602C16.4194 24.662 16.545 24.7985 16.6317 24.961L16.6555 25C16.8202 24.974 16.9805 24.9263 17.1322 24.8592L17.2232 24.8267C17.6738 24.6591 17.9555 24.3572 18.0681 23.921L18.1483 23.6524C18.1981 23.4639 18.2414 23.2884 18.2826 23.1281C18.4798 22.3351 18.6206 21.7588 19.1492 21.8541C19.3031 21.8888 19.4396 21.9776 19.5349 22.1011C19.6237 21.9494 19.6996 21.7891 19.7667 21.6266C20.2347 20.5217 20.4665 20.0342 21.0667 20.0342C21.2075 20.0428 21.3462 20.0753 21.4762 20.1295C21.8748 20.2682 22.2518 20.4003 22.6873 19.4795C22.8758 19.0701 23.1163 18.6866 23.4066 18.3399C23.6406 18.0561 23.7684 17.9066 23.8399 17.1981C23.8811 16.7236 24.0067 16.2622 24.2147 15.8353C24.3122 15.6642 24.3577 15.4692 24.3491 15.272V15.194C24.3144 14.5982 24.2689 13.7987 24.8517 13.5084V7C24.3556 7.26216 23.4391 7.72147 22.9928 7.7778C22.4035 7.85147 21.838 8.07029 21.5867 8.32162C20.902 9.00626 20.356 9.35291 19.9162 9.38108C19.7342 9.39408 19.3291 9.47424 18.9023 9.5609C17.819 9.77756 17.1278 9.90106 16.8613 9.7949C16.7162 9.72557 16.5775 9.64107 16.4475 9.54574C16.0142 9.25325 15.3642 8.81343 14.8464 9.01059C14.1228 9.29441 13.735 8.79393 13.4793 8.45161C13.4121 8.34762 13.3276 8.25445 13.2323 8.17646C12.9311 8.06379 10.0583 8.17646 8 8.29995V21.4251C8.19499 21.6786 8.53515 21.7718 8.83197 21.6526C9.12446 21.5248 9.46245 21.5551 9.7246 21.7371C10.0431 21.9646 10.2424 22.3199 10.2706 22.7099C10.2641 22.9287 10.3486 23.1389 10.5024 23.2927C10.6042 23.3707 10.7386 23.3946 10.8621 23.3556C11.1372 23.2711 11.4319 23.4032 11.551 23.6654C11.6594 23.8322 11.746 23.9665 12.2292 23.882C12.7903 23.791 12.9571 23.882 13.0958 24.0142C13.137 24.0489 13.1976 24.1009 13.7956 23.9124C14.6558 23.648 15.1151 23.5094 15.3989 23.5094Z" fill="#191917"/>
</svg>
