<svg width="15" height="14" viewBox="0 0 15 14" fill="none" xmlns="http://www.w3.org/2000/svg">
<path d="M5.33781 7C5.33781 5.71138 6.38278 4.66648 7.67217 4.66648C8.96156 4.66648 10.0071 5.71138 10.0071 7C10.0071 8.28862 8.96156 9.33352 7.67217 9.33352C6.38278 9.33352 5.33781 8.28862 5.33781 7ZM4.0756 7C4.0756 8.9852 5.68578 10.5944 7.67217 10.5944C9.65856 10.5944 11.2687 8.9852 11.2687 7C11.2687 5.0148 9.65856 3.40558 7.67217 3.40558C5.68578 3.40558 4.0756 5.0148 4.0756 7ZM10.5706 3.26306C10.5706 3.4292 10.6198 3.59163 10.7121 3.7298C10.8044 3.86797 10.9356 3.97569 11.0892 4.03933C11.2427 4.10297 11.4117 4.11967 11.5748 4.08732C11.7378 4.05498 11.8876 3.97504 12.0052 3.85761C12.1228 3.74018 12.2029 3.59054 12.2354 3.42761C12.2679 3.26467 12.2513 3.09577 12.1878 2.94226C12.1242 2.78874 12.0165 2.65751 11.8784 2.56515C11.7402 2.4728 11.5777 2.42347 11.4115 2.4234H11.4111C11.1883 2.4235 10.9746 2.51199 10.817 2.66943C10.6594 2.82686 10.5708 3.04037 10.5706 3.26306ZM4.84247 12.6978C4.15959 12.6668 3.78842 12.5531 3.54176 12.457C3.21475 12.3298 2.98143 12.1783 2.73611 11.9334C2.4908 11.6886 2.33895 11.4556 2.2122 11.1288C2.11605 10.8824 2.0023 10.5114 1.97125 9.8289C1.9373 9.09104 1.93052 8.86939 1.93052 7.00006C1.93052 5.13072 1.93786 4.90969 1.97125 4.17122C2.00235 3.48874 2.11694 3.11842 2.2122 2.87129C2.33951 2.54447 2.49113 2.31129 2.73611 2.06612C2.98109 1.82095 3.21419 1.66919 3.54176 1.54252C3.78831 1.44642 4.15959 1.33274 4.84247 1.30172C5.58077 1.26778 5.80255 1.26101 7.67217 1.26101C9.54179 1.26101 9.76379 1.26834 10.5027 1.30172C11.1856 1.3328 11.5561 1.44732 11.8034 1.54252C12.1304 1.66919 12.3638 1.82129 12.6091 2.06612C12.8544 2.31095 13.0057 2.54447 13.133 2.87129C13.2291 3.11769 13.3429 3.48874 13.3739 4.17122C13.4079 4.90969 13.4147 5.13072 13.4147 7.00006C13.4147 8.86939 13.4079 9.09042 13.3739 9.8289C13.3428 10.5114 13.2285 10.8823 13.133 11.1288C13.0057 11.4556 12.854 11.6888 12.6091 11.9334C12.3641 12.178 12.1304 12.3298 11.8034 12.457C11.5569 12.5531 11.1856 12.6668 10.5027 12.6978C9.76441 12.7318 9.54263 12.7385 7.67217 12.7385C5.80171 12.7385 5.58055 12.7318 4.84247 12.6978ZM4.78448 0.042392C4.03884 0.076328 3.52932 0.194488 3.08436 0.367528C2.62354 0.546224 2.23344 0.78596 1.84361 1.17494C1.45378 1.56391 1.21452 1.9544 1.03572 2.41494C0.862573 2.85992 0.744343 3.36885 0.710386 4.11404C0.675869 4.86041 0.667969 5.09902 0.667969 7C0.667969 8.90098 0.675869 9.13959 0.710386 9.88596C0.744343 10.6312 0.862573 11.1401 1.03572 11.5851C1.21452 12.0453 1.45384 12.4363 1.84361 12.8251C2.23338 13.2139 2.62354 13.4533 3.08436 13.6325C3.53016 13.8055 4.03884 13.9237 4.78448 13.9576C5.53169 13.9915 5.77005 14 7.67217 14C9.57429 14 9.81304 13.9921 10.5599 13.9576C11.3056 13.9237 11.8147 13.8055 12.26 13.6325C12.7205 13.4533 13.1109 13.214 13.5007 12.8251C13.8906 12.4361 14.1293 12.0453 14.3086 11.5851C14.4818 11.1401 14.6006 10.6312 14.634 9.88596C14.6679 9.13903 14.6758 8.90098 14.6758 7C14.6758 5.09902 14.6679 4.86041 14.634 4.11404C14.6 3.36879 14.4818 2.85964 14.3086 2.41494C14.1293 1.95468 13.8899 1.56453 13.5007 1.17494C13.1115 0.785344 12.7205 0.546224 12.2605 0.367528C11.8147 0.194488 11.3055 0.075768 10.5604 0.042392C9.8136 0.008456 9.57485 0 7.67273 0C5.77061 0 5.53169 0.007896 4.78448 0.042392Z" fill="#191917"/>
</svg>
