<svg width="334" height="56" viewBox="0 0 334 56" fill="none" xmlns="http://www.w3.org/2000/svg">
<g clip-path="url(#clip0_2_66)">
<mask id="mask0_2_66" style="mask-type:luminance" maskUnits="userSpaceOnUse" x="0" y="0" width="329" height="56">
<path d="M329 0H0V56H329V0Z" fill="white"/>
</mask>
<g mask="url(#mask0_2_66)">
<path d="M148.687 2.41501C153.748 -0.244989 161.147 1.53301 163.331 5.49501C167.909 13.776 158.949 19.243 156.527 17.192C157.178 17.003 158.249 15.932 158.249 15.932C156.009 15.652 155.694 13.965 155.694 13.965C156.625 14.525 158.158 13.51 158.158 13.51C156.947 12.859 156.814 11.165 156.814 11.165C160.146 11.27 163.016 8.29501 158.578 3.95501C161.056 7.71401 159.572 9.42901 159.047 10.038C159.047 9.86301 159.033 9.39401 158.949 9.17001C158.165 7.08401 156.506 6.16001 155.295 6.23001C153.384 1.98801 148.68 2.40801 148.68 2.40801L148.687 2.41501Z" fill="black"/>
<path d="M137.928 7.34991C137.928 7.34991 140.056 3.06591 148.071 2.83491C154.084 2.65991 155.337 8.14791 155.337 8.79891C155.337 9.63891 153.895 10.5699 155.848 12.3409C155.379 12.8099 154.126 13.0409 152.915 12.1099C152.726 12.7609 152.306 13.6919 151.235 14.1119C150.115 13.6009 149.233 11.7389 149.233 11.7389C147.553 12.5789 145.831 10.9479 145.831 10.9479C147.693 11.1369 149.625 6.66391 147.091 5.59291C142.527 3.66091 137.921 7.35691 137.921 7.35691L137.928 7.34991Z" fill="black"/>
<path d="M136.724 10.332C137.102 9.23303 137.2 8.75003 138.145 7.94503C140.455 5.97803 144.921 4.38903 147.525 6.62203C144.382 7.36403 142.275 10.647 142.149 11.522C141.61 11.144 140.189 10.983 138.887 11.991C138.586 11.039 137.494 10.661 136.724 10.339V10.332Z" fill="black"/>
<path d="M128.142 9.68793C129.164 7.35693 132.013 8.55393 132.013 8.55393C132.013 8.55393 132.475 5.94293 133.875 5.20093C135.275 5.94993 136.017 8.46293 136.017 8.46293C136.017 8.46293 136.5 7.84693 137.242 7.84693C136.822 8.35793 136.262 9.45693 136.045 10.2969C135.814 10.2059 135.66 10.1499 135.66 10.1499C135.66 10.1499 135.079 11.2209 135.121 12.4109C135.121 12.4109 134.099 11.5709 132.79 11.6619C132.79 11.6619 131.369 13.7129 132.461 15.1339C131.901 15.1059 129.92 18.1159 132.552 19.3969C132.552 19.3969 132.664 18.3819 133.217 17.8989C134.26 16.9819 136.094 19.0189 135.233 19.9569C134.708 20.5169 133.882 19.7959 133.511 19.0469C133.427 19.3689 133.791 20.1319 133.938 20.2579C134.309 20.5869 135.072 20.8109 135.758 20.2089C137.06 19.0609 134.757 16.4359 133.287 17.4579C132.692 17.8709 132.349 18.7879 132.349 18.7879C130.529 17.5979 132.685 15.3299 133.245 15.3579C132.034 14.0559 132.944 12.0889 132.944 12.0889C134.246 11.9979 135.688 13.4539 135.688 13.4539C135.408 12.2569 135.877 10.5979 135.877 10.5979C135.877 10.5979 138.523 11.7179 138.376 12.9429C140.616 10.9829 143.283 12.9919 143.283 12.9919C141.631 13.1319 140.504 14.2379 140.728 15.4419C141.057 17.2129 140.483 18.9419 139.146 20.5939C138.572 21.3009 138.369 21.4339 137.466 21.8749C138.257 20.9929 139.356 19.7889 138.285 17.6959C138.796 20.5869 136.703 22.2599 135.023 22.9599C133.707 23.5059 131.348 22.9739 129.871 20.7619C129.311 19.9219 129.15 17.5069 130.711 13.2159C130.914 12.6629 130.844 9.21893 128.142 9.68793Z" fill="black"/>
<path d="M184.219 21.5951C184.219 21.5951 183.33 20.1951 182.028 20.4891C182.028 20.4891 183.918 18.1581 181.909 16.0161C182.077 18.5501 178.276 18.3471 176.365 21.7001C177.296 17.2761 183.029 18.7181 181.741 12.0261C181.426 10.4091 181.167 9.80013 180.334 9.09313C180.628 11.6411 180.698 13.4611 177.555 15.3511C179.746 13.4401 180.285 10.1431 178.885 7.91013C178.283 6.95113 177.744 6.19513 178.017 4.10913C177.177 4.13713 176.575 4.18613 175.777 5.76813C175.035 5.20813 172.515 4.57113 169.442 6.16013C165.508 8.19013 162.869 12.7541 165.228 16.4641C166.159 17.9341 168.847 18.3821 170.639 16.9611C169.617 16.9611 168.56 15.9951 168.56 15.9951C168.56 15.9951 171.388 15.2671 171.528 13.4541C163.317 14.3291 169.638 4.11613 175.042 7.67913C171.857 6.46113 168.595 8.75013 168.875 11.4521C169.344 10.4301 170.338 9.82113 171.5 9.87013C170.94 10.6611 170.751 11.4521 170.94 11.8231C175.133 9.40113 176.764 11.9141 176.764 13.3631C176.764 14.5881 176.064 15.1831 175.364 15.4631C174.377 15.8551 173.411 15.5401 172.046 16.5341C170.667 17.5351 167.398 20.3911 164.626 16.5901H161.784C159.313 18.7251 156.422 18.4941 155.54 17.1921C155.827 17.1081 156.289 16.8561 156.611 16.5901H141.841C141.841 16.5901 141.792 17.9761 141.141 19.3761C140.483 20.7761 139.216 21.7981 138.908 22.0291V23.9751C139.671 23.8841 140.791 24.2551 140.791 24.2551C140.98 26.4461 139.139 27.6921 139.139 27.6921C139.139 27.6921 140.441 25.8301 140.021 24.7101C140.021 24.7101 138.6 24.1501 137.2 25.4591C137.2 25.4591 136.255 24.8081 136.248 23.3801C134.477 24.1291 131.306 23.9331 130.466 21.6581C130.214 23.4991 130.48 25.6341 132.258 27.2231C134.96 29.6451 135.016 32.1371 134.407 34.1391C134.407 34.1391 135.429 34.5101 135.947 33.3971C135.947 33.3971 137.13 34.5731 136.969 36.4281C136.787 38.5561 135.905 38.6891 135.905 38.6891C136.696 39.0181 137.424 38.6891 137.858 37.9611C138.138 38.4301 136.843 40.7261 134.316 38.2831C133.294 37.2961 135.898 36.7431 135.667 35.7701C135.667 35.7701 134.505 35.2591 133.567 36.1411C133.567 36.1411 133.336 34.4191 132.447 34.0901C131.096 34.8811 130.865 36.4211 131.327 37.0721C129.787 37.5411 129.885 38.5631 129.885 38.5631C132.496 38.4721 132.685 40.9221 135.485 40.9221C137.746 40.9221 138.509 39.8511 138.929 39.1511C139.538 39.2421 139.86 39.2001 140.049 38.8221C138.278 36.9111 140.378 36.9111 139.629 34.1531C139.797 34.4121 139.944 34.7621 140.049 35.1051C140.798 37.4781 139.02 37.2401 140.931 38.7311C140.742 39.1021 139.93 40.0121 139.23 39.7811C139.118 39.9701 138.929 40.4111 138.929 40.4111C138.929 46.4661 140.287 50.2811 147.791 51.5901C156.758 53.1581 156.723 55.0831 157.178 55.7131C157.668 54.9081 157.78 52.9621 165.634 51.5901C171.437 50.5751 173.572 48.1881 174.244 44.0931C174.881 43.8201 177.177 42.2871 178.724 40.3271C180.516 38.0451 179.963 35.9031 182.357 36.5401C182.357 36.5401 182.497 34.4401 179.375 34.5521C179.375 34.5521 182.266 33.2431 181.426 30.6391C181.426 30.6391 179.284 31.0871 178.633 32.0181C178.633 32.0181 179.263 29.4561 178.234 28.8051C178.234 28.8051 177.163 28.8191 175.861 31.5211C175.91 30.2611 176.232 29.9811 176.232 29.9811C175.392 29.1901 175.462 27.4961 175.882 26.7961C176.806 25.2491 177.835 25.2561 178.955 25.9561C178.955 25.9561 178.213 23.9121 174.671 25.2631C175.973 23.7021 177.814 23.9751 179.123 24.8151C180.719 25.8441 181.363 27.6081 183.057 27.5661C183.057 27.5661 183.708 24.4721 182.448 22.9391C182.448 22.9391 183.659 22.5191 184.219 21.5881V21.5951ZM137.151 30.4011C133.686 28.6091 134.386 26.3131 134.386 26.3131C134.386 26.3131 134.722 28.5111 137.48 29.7921C140.273 31.1011 140.322 33.2851 140.322 33.2851C140.322 33.2851 139.951 31.8431 137.151 30.3941V30.4011ZM174.965 33.2921C174.965 33.2921 172.522 35.5321 173.733 37.1141C176.015 34.4121 177.135 36.8971 177.135 38.3251C177.135 40.0191 175.574 41.5451 173.726 42.8471C173.18 43.2321 172.669 44.3591 172.473 44.9261C172.529 44.5691 172.725 43.3021 173.131 42.7211C173.523 42.1471 174.461 41.1601 174.461 41.1601C174.531 40.7611 174.51 40.0751 174.51 40.0751V37.1771C174.265 37.3451 173.845 37.7861 173.572 38.1081C172.081 36.4771 173.362 34.0061 174.062 33.4041C172.949 32.4591 172.781 31.1011 172.753 29.8621C172.802 31.0101 173.488 32.1721 174.965 33.2921ZM175.581 21.3641C173.95 24.2551 173.089 24.4231 172.83 28.0701C172.2 23.7231 174.377 22.4281 174.741 21.3641C175.721 18.5221 173.621 17.3111 173.621 17.3111C176.694 18.8931 175.574 21.3641 175.574 21.3641H175.581Z" fill="black"/>
<path d="M141.89 19.572V40.075C141.89 45.864 142.73 47.698 148.295 48.671C153.006 49.497 155.771 50.575 157.171 51.492C158.676 50.435 161.406 49.322 165.116 48.671C170.681 47.698 171.521 45.864 171.521 40.075V19.572H141.883H141.89Z" fill="white" stroke="white" stroke-width="0.26"/>
<path d="M142.835 42.8331L142.793 42.7421L142.177 44.0581C142.576 46.0181 143.479 47.1661 145.411 47.9151L142.884 42.7351L142.842 42.8261L142.835 42.8331Z" fill="#0060A9"/>
<path d="M159.971 30.842L159.285 29.372L161.595 27.489L159.971 30.842Z" fill="#0060A9"/>
<path d="M165.683 30.8421L163.429 25.9981L167.538 22.6521L168.595 24.8291L165.683 30.8421Z" fill="#0060A9"/>
<path d="M171.395 30.842L171.528 30.576V19.572H171.059L168.595 24.822L171.395 30.842Z" fill="#0060A9"/>
<path d="M148.547 42.833L146.951 39.41L151.088 36.043L151.459 36.82L148.547 42.833Z" fill="#0060A9"/>
<path d="M154.259 42.833L151.459 36.813L152.271 35.077L155.169 32.718L157.171 36.82L154.259 42.833Z" fill="#0060A9"/>
<path d="M159.971 42.833L162.883 36.82L159.971 30.842L157.171 36.813L159.971 42.833Z" fill="#0060A9"/>
<path d="M165.683 42.833L168.595 36.82L165.683 30.842L162.883 36.813L165.683 42.833Z" fill="#0060A9"/>
<path d="M168.595 36.813L171.388 42.833L171.416 42.77C171.493 41.979 171.514 41.09 171.514 40.068V31.115L171.381 30.842L168.588 36.813H168.595Z" fill="#0060A9"/>
<path d="M148.547 42.833L146.062 48.146C146.706 48.349 147.448 48.517 148.302 48.664C149.38 48.853 150.36 49.056 151.242 49.266L151.466 48.804L148.547 42.833Z" fill="#0060A9"/>
<path d="M154.259 42.833L151.466 48.804L151.739 49.392C153.678 49.882 155.12 50.407 156.156 50.918L157.178 48.811L154.259 42.84V42.833Z" fill="#0060A9"/>
<path d="M159.971 42.833L157.178 48.804L158.144 50.89C159.278 50.274 160.818 49.672 162.701 49.182L162.883 48.804L159.964 42.833H159.971Z" fill="#0060A9"/>
<path d="M162.883 48.804L163.023 49.105C163.681 48.944 164.381 48.797 165.116 48.664C166.341 48.454 167.328 48.195 168.14 47.866L165.683 42.833L162.89 48.804H162.883Z" fill="#0060A9"/>
<path d="M142.786 42.7421L142.835 42.8331L142.877 42.7421L142.835 42.6511L142.786 42.7421Z" fill="#2E3192"/>
<path d="M141.89 19.572V40.075C141.89 41.37 142.093 43.638 142.219 44.569L171.325 19.572H141.89Z" fill="#CE1141"/>
<path d="M149.415 28.812C149.415 28.812 148.204 24.899 145.684 24.71C143.171 24.521 144.102 27.692 145.215 27.881C146.608 28.112 145.775 26.481 145.775 26.481C145.775 26.481 147.756 27.797 147.945 28.917C148.134 30.037 149.415 28.812 149.415 28.812Z" fill="#C9A904" stroke="#CE1141" stroke-width="0.13"/>
<path d="M149.282 28.812C149.282 28.812 150.493 24.899 153.013 24.71C155.526 24.521 154.595 27.692 153.482 27.881C152.089 28.112 152.922 26.481 152.922 26.481C152.922 26.481 150.941 27.797 150.752 28.917C150.563 30.037 149.282 28.812 149.282 28.812Z" fill="#C9A904" stroke="#CE1141" stroke-width="0.13"/>
<path d="M149.352 30.0371C149.352 30.0371 150.563 31.1571 150.752 32.2771C150.941 33.3971 149.352 35.0701 149.352 35.0701H149.345C149.345 35.0701 147.763 33.3901 147.945 32.2771C148.134 31.1571 149.345 30.0371 149.345 30.0371" fill="#C9A904"/>
<path d="M149.352 30.0371C149.352 30.0371 150.563 31.1571 150.752 32.2771C150.941 33.3971 149.352 35.0701 149.352 35.0701H149.345C149.345 35.0701 147.763 33.3901 147.945 32.2771C148.134 31.1571 149.345 30.0371 149.345 30.0371" stroke="#CE1141" stroke-width="0.13"/>
<path d="M147.945 30.3169C147.945 30.3169 147.665 31.2479 147.196 31.2479C146.727 31.2479 145.425 30.6879 145.425 30.6879C145.425 30.6879 145.516 32.5499 147.287 32.7389C149.058 32.9279 149.338 30.3169 149.338 30.3169H147.938H147.945Z" fill="#C9A904" stroke="#CE1141" stroke-width="0.15"/>
<path d="M147.238 29.5681C147.238 29.1341 148.183 28.7771 149.345 28.7771C150.507 28.7771 151.452 29.1341 151.452 29.5681C151.452 30.0021 150.507 30.3591 149.345 30.3591C148.183 30.3591 147.238 30.0021 147.238 29.5681Z" fill="#C9A904" stroke="#CE1141" stroke-width="0.15"/>
<path d="M150.752 30.3169C150.752 30.3169 151.032 31.2479 151.501 31.2479C151.97 31.2479 153.272 30.6879 153.272 30.6879C153.272 30.6879 153.181 32.5499 151.41 32.7389C149.639 32.9279 149.359 30.3169 149.359 30.3169H150.759H150.752Z" fill="#C9A904" stroke="#CE1141" stroke-width="0.15"/>
<path d="M157.178 51.618L157.115 51.576C156.135 50.932 153.685 49.721 148.281 48.769C142.639 47.782 141.785 45.927 141.785 40.068V19.46H171.633V40.068C171.633 45.927 170.779 47.782 165.137 48.769C161.826 49.35 158.942 50.372 157.234 51.569L157.171 51.611L157.178 51.618ZM141.995 19.677V40.068C141.995 46.487 143.416 47.698 148.316 48.559C153.65 49.49 156.142 50.694 157.171 51.359C158.914 50.162 161.791 49.14 165.102 48.559C170.59 47.6 171.423 45.787 171.423 40.068V19.677H142.002H141.995Z" fill="white"/>
<path d="M149.345 20.6221C149.345 20.6221 148.225 21.5531 147.483 25.5641C147.483 25.5641 149.345 27.8041 149.345 28.8261C149.345 27.8041 151.207 25.5641 151.207 25.5641C150.458 21.5601 149.345 20.6221 149.345 20.6221Z" fill="#C9A904" stroke="#CE1141" stroke-width="0.15"/>
<path d="M44.9749 8.94604C33.4879 8.94604 25.7529 18.004 25.7529 28.917C25.7529 39.83 32.3329 47.789 43.9319 47.789C55.5309 47.789 63.1539 38.731 63.1539 27.818C63.1539 16.905 56.5739 8.94604 44.9749 8.94604ZM45.2059 45.885C38.3949 45.885 30.6599 40.348 30.6599 27.3C30.6599 16.793 35.9099 10.85 43.7009 10.85C50.5119 10.85 58.2469 16.387 58.2469 29.435C58.2469 39.942 52.9969 45.885 45.2059 45.885Z" fill="black"/>
<path d="M108.115 8.94604C96.6281 8.94604 88.8931 18.004 88.8931 28.917C88.8931 39.83 95.4731 47.789 107.072 47.789C118.671 47.789 126.294 38.731 126.294 27.818C126.294 16.905 119.714 8.94604 108.115 8.94604ZM108.346 45.885C101.535 45.885 93.8001 40.348 93.8001 27.3C93.8001 16.793 99.0501 10.85 106.841 10.85C113.652 10.85 121.387 16.387 121.387 29.435C121.387 39.942 116.137 45.885 108.346 45.885Z" fill="black"/>
<path d="M70.8679 23.128V12.824C70.8679 12.243 71.1549 11.788 72.0229 11.788H77.6789C86.7999 11.788 87.7799 13.349 87.9549 14.042C88.0669 14.791 88.1859 15.078 88.6479 15.078C89.1659 14.966 89.3409 14.791 89.8589 9.70898H60.9419V11.438H64.3509C65.8489 11.438 65.9679 13.629 65.9679 19.572V43.694C65.9679 44.212 65.7369 44.618 65.0999 44.618H62.3909V46.347H75.7819V44.618H72.4919C70.9939 44.618 70.8749 42.427 70.8749 36.484V27.251H78.1479C84.7279 27.251 85.3019 27.307 85.3019 28.868V30.891H86.8629C86.8629 30.891 86.8279 25.76 86.8629 25.76V20.741H85.3019V22.988C85.3019 24.717 83.5099 24.948 77.5669 24.948H70.8749V23.135L70.8679 23.128Z" fill="black"/>
<path d="M13.594 11.0111C15.442 11.0111 20.118 11.6481 20.517 14.1261C20.573 14.5321 20.629 14.9941 21.21 14.9941C21.672 14.9941 21.847 14.6511 21.847 14.2451C21.847 12.8591 21.735 11.4171 21.672 10.0311C19.824 9.16313 17.577 8.93213 15.148 8.93213C8.97401 8.93213 2.04401 12.5651 2.04401 19.4951C2.04401 26.4251 9.08601 28.7841 11.683 29.7081C17.395 31.7871 20.748 33.7471 20.748 38.1921C20.748 43.3861 16.016 45.6961 11.396 45.6961C8.56801 45.6961 3.19901 44.4851 2.39401 41.2511C2.27501 40.7331 2.10701 40.1521 1.52601 40.1521C1.06401 40.1521 0.833008 40.4391 0.833008 40.8451C0.833008 41.3631 1.06401 42.5741 1.70101 46.1511C4.35401 47.1871 7.87501 47.7681 10.703 47.7681C20.223 47.7681 24.612 41.4751 24.612 36.4561C24.612 30.2821 21.091 27.9161 13.706 25.2001C10.073 23.8141 5.74001 22.3161 5.74001 17.6401C5.74001 13.3701 9.72301 11.0041 13.587 11.0041L13.594 11.0111Z" fill="black"/>
<path d="M196.294 24.178V13.874C196.294 13.293 196.581 12.838 197.449 12.838H203.105C212.226 12.838 213.206 14.399 213.381 15.092C213.5 15.841 213.612 16.128 214.074 16.128C214.592 16.016 214.767 15.841 215.285 10.759H186.368V12.488H189.777C191.275 12.488 191.394 14.679 191.394 20.622V44.744C191.394 45.262 191.163 45.668 190.526 45.668H187.817V47.397H201.208V45.668H197.918C196.42 45.668 196.301 43.477 196.301 37.534V28.301H203.574C210.154 28.301 210.728 28.357 210.728 29.918V31.934H212.282C212.282 31.934 212.247 26.803 212.282 26.803V21.784H210.728V24.031C210.728 25.76 208.936 25.991 202.993 25.991H196.301V24.178H196.294Z" fill="black"/>
<path d="M316.897 11.7809C318.745 11.7809 323.421 12.4179 323.82 14.8959C323.876 15.3019 323.932 15.7639 324.513 15.7639C324.975 15.7639 325.15 15.4209 325.15 15.0149C325.15 13.6289 325.031 12.1869 324.975 10.8009C323.127 9.9329 320.88 9.7019 318.451 9.7019C312.277 9.7019 305.347 13.3349 305.347 20.2649C305.347 27.1949 312.389 29.5539 314.986 30.4779C320.698 32.5569 324.051 34.5169 324.051 38.9619C324.051 44.1559 319.319 46.4659 314.699 46.4659C311.871 46.4659 306.502 45.2549 305.697 42.0209C305.585 41.5029 305.41 40.9219 304.829 40.9219C304.367 40.9219 304.136 41.2089 304.136 41.6149C304.136 42.1329 304.367 43.3439 305.004 46.9279C307.657 47.9639 311.178 48.5449 314.006 48.5449C323.533 48.5449 327.915 42.2519 327.915 37.2329C327.915 31.0589 324.394 28.6929 317.009 25.9769C313.376 24.5909 309.043 23.0929 309.043 18.4169C309.043 14.1469 313.026 11.7809 316.89 11.7809H316.897Z" fill="black"/>
<path d="M286.265 10.8011H269.297V12.5301H272.706C274.204 12.5301 274.323 14.7211 274.323 20.6641V44.7861C274.323 45.3041 274.092 45.7101 273.455 45.7101H270.746V47.4391H286.328C298.277 47.4391 305.256 38.7241 305.256 28.3921C305.256 23.1421 302.547 10.7871 286.265 10.7871V10.8011ZM286.209 45.3741H281.589C279.86 45.3741 279.223 45.3741 279.223 38.2201V13.9161C279.223 12.8801 279.916 12.8801 283.724 12.8801C292.096 12.8801 299.999 18.0181 299.999 30.7161C299.999 37.2401 296.422 45.3741 286.202 45.3741H286.209Z" fill="black"/>
<path d="M254.114 9.7019C250.194 9.7019 246.715 10.7589 243.824 12.5789C240.996 10.7239 237.419 9.7019 233.163 9.7019C221.676 9.7019 213.941 18.7599 213.941 29.6729C213.941 40.5859 220.521 48.5449 232.12 48.5449C236.04 48.5449 239.519 47.4879 242.41 45.6679C245.238 47.5229 248.815 48.5449 253.071 48.5449C264.558 48.5449 272.293 39.4799 272.293 28.5739C272.293 17.6679 265.713 9.7019 254.114 9.7019ZM233.394 46.6409C226.583 46.6409 218.848 41.0969 218.848 28.0559C218.848 17.5559 224.098 11.6059 231.889 11.6059C234.906 11.6059 238.105 12.6909 240.73 15.0359C237.027 18.7039 234.885 23.9259 234.885 29.6659C234.885 35.9169 236.915 41.0479 240.709 44.3729C238.686 45.8569 236.201 46.6339 233.387 46.6339L233.394 46.6409ZM239.799 28.0559C239.799 23.4709 240.8 19.7539 242.571 17.0239C244.888 20.0339 246.435 24.3599 246.435 30.1909C246.435 34.7759 245.434 38.4929 243.656 41.2229C241.339 38.2129 239.792 33.8869 239.792 28.0559H239.799ZM254.345 46.6409C251.328 46.6409 248.129 45.5559 245.504 43.2109C249.207 39.5429 251.349 34.3209 251.349 28.5809C251.349 22.3299 249.319 17.1989 245.525 13.8739C247.548 12.3899 250.033 11.6129 252.847 11.6129C259.658 11.6129 267.393 17.1499 267.393 30.1979C267.393 40.7049 262.143 46.6479 254.352 46.6479L254.345 46.6409Z" fill="black"/>
</g>
<path d="M332.899 55.328C332.451 55.776 331.912 56 331.282 56C330.652 56 330.113 55.776 329.665 55.328C329.224 54.88 329 54.341 329 53.704C329 53.067 329.224 52.535 329.672 52.094C330.113 51.653 330.652 51.429 331.282 51.429C331.912 51.429 332.458 51.653 332.899 52.094C333.347 52.535 333.571 53.074 333.571 53.704C333.571 54.334 333.347 54.88 332.899 55.328ZM329.889 52.311C329.504 52.696 329.315 53.158 329.315 53.704C329.315 54.25 329.504 54.719 329.882 55.104C330.267 55.489 330.729 55.685 331.275 55.685C331.821 55.685 332.283 55.489 332.668 55.104C333.053 54.719 333.242 54.25 333.242 53.704C333.242 53.158 333.053 52.696 332.668 52.311C332.283 51.926 331.821 51.73 331.275 51.73C330.729 51.73 330.267 51.926 329.889 52.311ZM331.24 52.444C331.555 52.444 331.779 52.472 331.926 52.535C332.185 52.64 332.318 52.857 332.318 53.172C332.318 53.396 332.234 53.564 332.073 53.669C331.989 53.725 331.863 53.767 331.709 53.788C331.905 53.816 332.052 53.9 332.143 54.033C332.234 54.166 332.283 54.299 332.283 54.425V54.607C332.283 54.663 332.283 54.726 332.283 54.796C332.283 54.866 332.297 54.908 332.304 54.929L332.318 54.957H331.905C331.905 54.957 331.905 54.943 331.905 54.929C331.905 54.922 331.905 54.908 331.905 54.901V54.817L331.898 54.621C331.898 54.334 331.821 54.138 331.66 54.047C331.569 53.991 331.401 53.963 331.17 53.963H330.82V54.95H330.379V52.437H331.254L331.24 52.444ZM331.716 52.836C331.604 52.773 331.429 52.745 331.177 52.745H330.799V53.655H331.198C331.387 53.655 331.527 53.634 331.618 53.599C331.793 53.529 331.877 53.396 331.877 53.207C331.877 53.025 331.821 52.899 331.709 52.836H331.716Z" fill="black"/>
</g>
<defs>
<clipPath id="clip0_2_66">
<rect width="333.571" height="56" fill="white"/>
</clipPath>
</defs>
</svg>
