<svg width="137" height="173" viewBox="0 0 137 173" fill="none" xmlns="http://www.w3.org/2000/svg">
<g clip-path="url(#clip0_106_3767)">
<path d="M49.0326 0.0100098C38.2383 0.0100098 30.979 8.52397 30.979 18.7805C30.979 29.0371 37.1628 36.5155 48.0567 36.5155C58.9506 36.5155 66.1202 28.0015 66.1202 17.7549C66.1202 7.50827 59.9364 0.0100098 49.0326 0.0100098ZM49.2516 34.723C42.8488 34.723 35.5895 29.5151 35.5895 17.267C35.5895 7.39873 40.5286 1.81238 47.8476 1.81238C54.2505 1.81238 61.5098 7.02033 61.5098 19.2784C61.5098 29.1467 56.5707 34.733 49.2516 34.733V34.723Z" fill="white"/>
<path d="M108.361 0.0100098C97.5671 0.0100098 90.3079 8.52397 90.3079 18.7706C90.3079 29.0172 96.4917 36.5055 107.386 36.5055C118.279 36.5055 125.439 27.9915 125.439 17.7449C125.439 7.49831 119.255 0.0100098 108.361 0.0100098ZM108.581 34.723C102.178 34.723 94.9183 29.5151 94.9183 17.267C94.9183 7.39873 99.8574 1.81238 107.176 1.81238C113.579 1.81238 120.839 7.02033 120.839 19.2784C120.839 29.1467 115.9 34.733 108.581 34.733V34.723Z" fill="white"/>
<path d="M73.3595 13.3434V3.65441C73.3595 3.11669 73.6284 2.67854 74.445 2.67854H79.7624C88.3262 2.67854 89.2523 4.14235 89.4116 4.78961C89.5211 5.49661 89.6307 5.76547 90.0589 5.76547C90.5468 5.65594 90.7061 5.49661 91.194 0.726807H64.0291V2.34993H67.2255C68.6395 2.34993 68.7391 4.41121 68.7391 9.99756V32.6616C68.7391 33.1495 68.52 33.5279 67.9226 33.5279H65.3734V35.1511H77.9501V33.5279H74.8632C73.4492 33.5279 73.3496 31.4667 73.3496 25.8803V17.207H80.1807C86.3645 17.207 86.9022 17.2568 86.9022 18.7206V20.6226H88.366C88.366 20.6226 88.3361 15.803 88.366 15.803V11.083H86.9022V13.194C86.9022 14.8172 85.2193 15.0362 79.633 15.0362H73.3396V13.3334L73.3595 13.3434Z" fill="white"/>
<path d="M19.5473 1.95174C21.28 1.95174 25.6714 2.54921 26.0498 4.87934C26.0996 5.25774 26.1594 5.69589 26.6971 5.69589C27.1352 5.69589 27.2945 5.36728 27.2945 4.98888C27.2945 3.6844 27.185 2.33014 27.1352 1.02566C25.4026 0.209115 23.2815 0 21.0112 0C15.2057 0 8.70326 3.41554 8.70326 9.92797C8.70326 16.4404 15.3153 18.661 17.7549 19.5273C23.1222 21.4791 26.2689 23.3213 26.2689 27.5036C26.2689 32.3829 21.8177 34.5537 17.4861 34.5537C14.8273 34.5537 9.78866 33.4185 9.02191 30.3814C8.91237 29.8934 8.75305 29.3557 8.20536 29.3557C7.76722 29.3557 7.55811 29.6246 7.55811 30.003C7.55811 30.4909 7.77718 31.6261 8.37465 34.9919C10.8741 35.9677 14.1801 36.5055 16.8388 36.5055C25.7909 36.5055 29.9135 30.5905 29.9135 25.8804C29.9135 20.075 26.6075 17.8544 19.6668 15.3052C16.2513 14.0007 12.1785 12.5967 12.1785 8.20526C12.1785 4.19225 15.9227 1.97165 19.5573 1.97165L19.5473 1.95174Z" fill="white"/>
<path d="M9.3305 60.0856V50.3966C9.3305 49.8589 9.59936 49.4207 10.4159 49.4207H15.7334C24.2971 49.4207 25.2232 50.8845 25.3825 51.5318C25.4921 52.2388 25.6016 52.5077 26.0298 52.5077C26.5177 52.3981 26.6771 52.2388 27.165 47.469H0V49.0921H3.19647C4.60052 49.0921 4.71006 51.1534 4.71006 56.7397V79.4038C4.71006 79.8917 4.49099 80.2701 3.89352 80.2701H1.35427V81.8933H13.931V80.2701H10.8441C9.43008 80.2701 9.3305 78.2089 9.3305 72.6225V63.9492H16.1616C22.3454 63.9492 22.8831 63.999 22.8831 65.4728V67.3747H24.3469C24.3469 67.3747 24.3171 62.5551 24.3469 62.5551V57.8351H22.8831V59.9462C22.8831 61.5693 21.2002 61.7884 15.6139 61.7884H9.32054V60.0856H9.3305Z" fill="white"/>
<path d="M122.651 48.4449C124.383 48.4449 128.775 49.0424 129.163 51.3725C129.213 51.7509 129.273 52.1891 129.81 52.1891C130.249 52.1891 130.408 51.8604 130.408 51.482C130.408 50.1776 130.298 48.8233 130.249 47.5188C128.516 46.7023 126.395 46.4932 124.124 46.4932C118.319 46.4932 111.817 49.9087 111.817 56.4211C111.817 62.9336 118.429 65.1542 120.878 66.0205C126.246 67.9722 129.392 69.8144 129.392 73.9868C129.392 78.8661 124.941 81.0369 120.609 81.0369C117.951 81.0369 112.912 79.9017 112.145 76.8646C112.036 76.3767 111.876 75.8389 111.329 75.8389C110.891 75.8389 110.681 76.1078 110.681 76.4862C110.681 76.9741 110.9 78.1093 111.498 81.4751C113.997 82.4509 117.303 82.9887 119.952 82.9887C128.904 82.9887 133.027 77.0737 133.027 72.3636C133.027 66.5582 129.721 64.3376 122.78 61.7884C119.365 60.4839 115.302 59.0799 115.302 54.6885C115.302 50.6755 119.046 48.4549 122.681 48.4549L122.651 48.4449Z" fill="white"/>
<path d="M93.8627 47.5187H77.9202V49.1419H81.1166C82.5207 49.1419 82.6302 51.2031 82.6302 56.7895V79.4535C82.6302 79.9415 82.4112 80.3199 81.8137 80.3199H79.2645V81.943H93.9025C105.125 81.943 111.687 73.7577 111.687 64.0488C111.687 59.1097 109.138 47.5088 93.8428 47.5088L93.8627 47.5187ZM93.8129 80.0012H89.4713C87.8481 80.0012 87.2507 80.0012 87.2507 73.2797V50.4464C87.2507 49.4705 87.8979 49.4705 91.4828 49.4705C99.3494 49.4705 106.778 54.3 106.778 66.2295C106.778 72.3536 103.412 80.0012 93.8129 80.0012Z" fill="white"/>
<path d="M63.6506 46.4932C59.9662 46.4932 56.7 47.4889 53.9816 49.2017C51.3228 47.4591 47.9571 46.4932 43.964 46.4932C33.1697 46.4932 25.9104 55.0071 25.9104 65.2537C25.9104 75.5004 32.0942 82.9887 42.9881 82.9887C46.6725 82.9887 49.9387 81.9929 52.6572 80.2801C55.3159 82.0228 58.6817 82.9887 62.6748 82.9887C73.4691 82.9887 80.7383 74.4747 80.7383 64.2281C80.7383 53.9815 74.5545 46.4932 63.6506 46.4932ZM44.183 81.1962C37.7801 81.1962 30.5209 75.9883 30.5209 63.7302C30.5209 53.862 35.46 48.2756 42.779 48.2756C45.617 48.2756 48.6143 49.3013 51.0838 51.502C47.6085 54.9474 45.5971 59.8566 45.5971 65.2537C45.5971 71.1289 47.509 75.9485 51.0639 79.0752C49.162 80.4693 46.8318 81.2062 44.183 81.2062V81.1962ZM50.2075 63.7302C50.2075 59.4184 51.1436 55.9332 52.8165 53.3641C54.9973 56.1921 56.4511 60.2549 56.4511 65.7417C56.4511 70.0534 55.5151 73.5387 53.8421 76.1078C51.6614 73.2798 50.2175 69.217 50.2175 63.7302H50.2075ZM63.8697 81.1962C61.0317 81.1962 58.0344 80.1706 55.5649 77.9699C59.0401 74.5245 61.0516 69.6153 61.0516 64.2181C61.0516 58.343 59.1397 53.5234 55.5848 50.3966C57.4867 49.0025 59.8169 48.2756 62.4656 48.2756C68.8685 48.2756 76.1278 53.4836 76.1278 65.7417C76.1278 75.6099 71.1887 81.1962 63.8697 81.1962Z" fill="white"/>
<path d="M75.4804 145.594L71.3578 137.777L67.0361 145.594L71.3578 153.62L75.4804 145.594Z" fill="white"/>
<path d="M87.0015 139.998L83.9146 145.594L87.0015 151.34V139.998Z" fill="white"/>
<path d="M87.0015 124.155L83.9146 129.751L87.0015 135.506V124.155Z" fill="white"/>
<path d="M79.7922 153.62L83.9148 145.594L79.7922 137.777L75.4805 145.594L79.7922 153.62Z" fill="white"/>
<path d="M55.0271 95.7945C62.3362 91.9508 73.011 94.5199 76.1776 100.236C82.7896 112.195 69.8543 120.082 66.3591 117.124C67.3051 116.855 68.8486 115.312 68.8486 115.312C65.6222 114.904 65.1542 112.464 65.1542 112.464C66.4985 113.271 68.7092 111.807 68.7092 111.807C66.9566 110.861 66.7674 108.421 66.7674 108.421C71.577 108.57 75.7295 104.279 69.3166 98.0151C72.8915 103.442 70.7505 105.922 69.9937 106.798C69.9937 106.549 69.9738 105.862 69.8543 105.543C68.7291 102.536 66.3193 101.192 64.5866 101.301C61.8283 95.1772 55.0371 95.7846 55.0371 95.7846L55.0271 95.7945Z" fill="white"/>
<path d="M39.4929 102.924C39.4929 102.924 42.5698 96.7406 54.1409 96.402C62.8241 96.153 64.6364 104.07 64.6364 105.016C64.6364 106.23 62.5552 107.575 65.3733 110.124C64.6962 110.801 62.8838 111.13 61.1313 109.785C60.8624 110.731 60.255 112.076 58.7115 112.673C57.0983 111.936 55.8138 109.238 55.8138 109.238C53.394 110.453 50.9046 108.092 50.9046 108.092C53.5932 108.361 56.3814 101.909 52.7169 100.355C46.1347 97.5671 39.4829 102.904 39.4829 102.904L39.4929 102.924Z" fill="white"/>
<path d="M37.7502 107.236C38.288 105.643 38.4373 104.946 39.8016 103.791C43.1374 100.953 49.5802 98.6525 53.3542 101.879C48.8134 102.954 45.7763 107.684 45.597 108.949C44.8203 108.401 42.769 108.172 40.887 109.626C40.4488 108.242 38.8755 107.704 37.7602 107.236H37.7502Z" fill="white"/>
<path d="M25.3626 106.3C26.8464 102.934 30.9589 104.667 30.9589 104.667C30.9589 104.667 31.6361 100.903 33.6476 99.8176C35.669 100.893 36.7445 104.528 36.7445 104.528C36.7445 104.528 37.4415 103.641 38.5169 103.641C37.9095 104.378 37.1029 105.962 36.7843 107.176C36.4457 107.037 36.2266 106.967 36.2266 106.967C36.2266 106.967 35.3802 108.511 35.4499 110.234C35.4499 110.234 33.9662 109.019 32.0842 109.158C32.0842 109.158 30.0329 112.116 31.6162 114.167C30.8096 114.127 27.9517 118.469 31.7456 120.321C31.7456 120.321 31.9149 118.857 32.7016 118.16C34.2152 116.836 36.854 119.783 35.6093 121.127C34.8525 121.944 33.6575 120.888 33.1198 119.813C33.0003 120.281 33.5281 121.376 33.7372 121.556C34.2749 122.024 35.3802 122.362 36.3561 121.486C38.2282 119.833 34.9122 116.039 32.7912 117.513C31.9249 118.11 31.4369 119.435 31.4369 119.435C28.808 117.722 31.9149 114.446 32.7215 114.486C30.9689 112.604 32.2833 109.766 32.2833 109.766C34.1654 109.636 36.2466 111.737 36.2466 111.737C35.8383 110.005 36.5154 107.605 36.5154 107.605C36.5154 107.605 40.3293 109.218 40.1202 110.99C43.3465 108.162 47.2101 111.06 47.2101 111.06C44.8203 111.259 43.1971 112.862 43.5158 114.605C43.9838 117.164 43.1573 119.654 41.2255 122.044C40.399 123.069 40.1002 123.258 38.8057 123.896C39.9509 122.621 41.5342 120.888 39.9808 117.861C40.7176 122.034 37.6904 124.453 35.2707 125.469C33.3787 126.256 29.9632 125.489 27.8322 122.292C27.0256 121.078 26.7866 117.592 29.047 111.389C29.3358 110.592 29.2362 105.623 25.3328 106.29L25.3626 106.3Z" fill="white"/>
<path d="M106.33 123.497C106.33 123.497 105.045 121.476 103.163 121.904C103.163 121.904 105.892 118.538 102.994 115.441C103.233 119.096 97.7461 118.807 94.9878 123.647C96.3321 117.254 104.607 119.345 102.745 109.676C102.297 107.346 101.918 106.469 100.714 105.434C101.132 109.108 101.241 111.737 96.7005 114.465C99.8671 111.707 100.644 106.947 98.6224 103.721C97.756 102.337 96.9694 101.241 97.3677 98.2341C96.1528 98.2839 95.2865 98.3437 94.1413 100.634C93.0659 99.8274 89.4313 98.9113 84.9901 101.192C79.3042 104.119 75.5003 110.721 78.8959 116.069C80.2402 118.19 84.1138 118.837 86.7128 116.786C85.2291 116.786 83.7055 115.391 83.7055 115.391C83.7055 115.391 87.7882 114.346 87.9874 111.717C76.1376 112.982 85.2589 98.2341 93.0559 103.382C88.4554 101.63 83.7454 104.926 84.1536 108.829C84.8308 107.346 86.2647 106.479 87.9476 106.549C87.141 107.694 86.8721 108.839 87.141 109.377C93.1954 105.882 95.5554 109.506 95.5554 111.598C95.5554 113.37 94.5496 114.216 93.5339 114.625C92.1099 115.192 90.7159 114.734 88.7442 116.168C86.7526 117.612 82.0326 121.735 78.0296 116.248H73.9269C70.362 119.325 66.1897 118.996 64.9151 117.114C65.3333 116.995 65.9905 116.626 66.4585 116.248H45.1288C45.1288 116.248 45.0591 118.249 44.1231 120.271C43.1771 122.302 41.3449 123.766 40.8968 124.105V126.913C42.0021 126.783 43.6153 127.321 43.6153 127.321C43.8841 130.488 41.2254 132.29 41.2254 132.29C41.2254 132.29 43.1074 129.601 42.5 127.988C42.5 127.988 40.4487 127.182 38.4272 129.064C38.4272 129.064 37.063 128.128 37.053 126.066C34.4939 127.142 29.9232 126.863 28.6984 123.587C28.33 126.246 28.7183 129.323 31.2874 131.623C35.1909 135.118 35.2606 138.723 34.3943 141.611C34.3943 141.611 35.878 142.148 36.6149 140.535C36.6149 140.535 38.3177 142.228 38.0986 144.907C37.8397 147.974 36.5551 148.173 36.5551 148.173C37.7003 148.641 38.7459 148.173 39.3732 147.127C39.7815 147.804 37.9094 151.12 34.2648 147.595C32.7911 146.171 36.5551 145.375 36.2166 143.961C36.2166 143.961 34.5337 143.224 33.1894 144.498C33.1894 144.498 32.8508 142.009 31.5762 141.541C29.6245 142.686 29.2859 144.907 29.9631 145.843C27.7425 146.52 27.8819 147.993 27.8819 147.993C31.6459 147.864 31.9247 151.399 35.9676 151.399C39.2338 151.399 40.3292 149.856 40.9366 148.84C41.8129 148.969 42.2809 148.91 42.5498 148.372C39.9906 145.614 43.0178 145.614 41.9423 141.63C42.1813 142.009 42.3904 142.507 42.5498 143.005C43.6252 146.44 41.066 146.092 43.8244 148.242C43.5555 148.78 42.3805 150.095 41.3648 149.756C41.2055 150.025 40.9266 150.662 40.9266 150.662C40.9266 159.405 42.8883 164.912 53.7225 166.804C66.6677 169.064 66.6278 171.843 67.285 172.759C67.9921 171.594 68.1613 168.795 79.4934 166.804C87.8779 165.34 90.9548 161.895 91.9207 155.98C92.8369 155.581 96.1628 153.371 98.3834 150.533C100.972 147.237 100.166 144.14 103.631 145.056C103.631 145.056 103.83 142.029 99.3294 142.188C99.3294 142.188 103.502 140.306 102.287 136.532C102.287 136.532 99.19 137.179 98.2539 138.524C98.2539 138.524 99.1601 134.819 97.6863 133.883C97.6863 133.883 96.1429 133.903 94.2608 137.807C94.3306 135.994 94.7986 135.586 94.7986 135.586C93.5937 134.441 93.6833 132.001 94.2907 130.985C95.6251 128.755 97.1187 128.765 98.7319 129.771C98.7319 129.771 97.6565 126.813 92.5381 128.765C94.4202 126.514 97.0789 126.903 98.9609 128.118C101.271 129.601 102.187 132.151 104.647 132.091C104.647 132.091 105.593 127.63 103.771 125.409C103.771 125.409 105.523 124.802 106.33 123.457V123.497ZM38.3774 136.213C33.3686 133.624 34.3843 130.308 34.3843 130.308C34.3843 130.308 34.8623 133.475 38.8454 135.337C42.8784 137.219 42.9481 140.386 42.9481 140.386C42.9481 140.386 42.4104 138.304 38.3774 136.213ZM87.9974 150.174C87.9974 158.539 86.7825 161.178 78.7465 162.582C73.3992 163.518 69.4459 165.131 67.2751 166.654C65.2536 165.33 61.2605 163.777 54.4593 162.582C46.4234 161.178 45.2085 158.529 45.2085 150.174V120.57H87.9974V150.174ZM92.9763 140.376C92.9763 140.376 89.4412 143.602 91.1938 145.892C94.4899 141.989 96.103 145.584 96.103 147.645C96.103 150.085 93.8426 152.295 91.1739 154.177C90.3872 154.735 89.6504 156.368 89.3715 157.185C89.4512 156.677 89.74 154.844 90.3175 153.998C90.8851 153.172 92.2394 151.748 92.2394 151.748C92.339 151.18 92.3191 150.184 92.3191 150.184V146.002C91.9705 146.241 91.3631 146.878 90.9648 147.346C88.8139 144.996 90.6561 141.421 91.6718 140.555C90.0686 139.191 89.8196 137.229 89.7898 135.437C89.8595 137.1 90.8453 138.773 92.9862 140.396L92.9763 140.376ZM93.8526 123.159C91.4926 127.331 90.2478 127.57 89.8794 132.848C88.9732 126.564 92.1099 124.702 92.6377 123.159C94.0517 119.056 91.0245 117.303 91.0245 117.303C95.4657 119.594 93.8526 123.159 93.8526 123.159Z" fill="white"/>
<path d="M52.896 150.652L54.4892 153.62L58.4923 145.813L58.6416 145.673L62.9136 153.62L67.0261 145.594L64.4271 140.664L70.2127 135.666L71.3478 137.767L74.1858 132.23L75.9683 130.687L79.7821 137.757L83.8947 129.731L81.7538 125.678L86.5435 121.545H46.1943V150.154C46.1943 155.462 46.8217 158.091 48.7933 159.604L46.8217 155.87L52.876 150.632L52.896 150.652ZM50.9044 136.871C50.9044 136.871 52.9557 137.747 53.4934 137.478C54.0809 137.179 54.3797 136.114 54.3797 136.114C54.9871 136.353 56.1123 136.313 56.1123 136.313C56.0028 136.791 55.5647 139.34 53.5233 139.34C51.482 139.34 50.9741 137.428 50.9144 136.861L50.9044 136.871ZM53.4237 135.118C53.4237 134.6 54.6983 134.182 56.2717 134.182C57.845 134.182 59.1196 134.6 59.1196 135.118C59.1196 135.636 57.845 136.054 56.2717 136.054C54.6983 136.054 53.4237 135.636 53.4237 135.118ZM56.2717 142.527C56.0028 142.367 54.6784 140.684 54.4394 139.47C54.4394 139.47 55.5049 139.41 56.2717 136.861C57.0384 139.41 58.1039 139.47 58.1039 139.47C57.8649 140.684 56.5306 142.377 56.2717 142.527ZM59.03 139.35C56.9886 139.35 56.5505 136.791 56.441 136.323C56.441 136.323 57.5662 136.363 58.1736 136.124C58.1736 136.124 58.4724 137.189 59.0599 137.488C59.5976 137.757 61.6489 136.88 61.6489 136.88C61.5892 137.448 61.0813 139.36 59.04 139.36L59.03 139.35ZM61.6489 128.267C62.9036 128.267 63.5409 128.705 63.5409 129.98C63.5409 131.005 62.9733 132.449 61.6987 132.449C60.4241 132.449 61.5294 130.288 61.5294 130.288C58.2732 132.37 58.1039 134.092 58.1039 134.092C57.4965 133.843 56.441 133.843 56.441 133.843C56.4111 133.425 58.3031 128.257 61.6589 128.257L61.6489 128.267ZM56.2717 122.73C56.9787 123.368 58.7412 127.729 58.7412 129.293C58.7412 129.293 57.367 130.547 56.2717 133.206C55.1664 130.537 53.842 129.293 53.842 129.293C53.842 127.729 55.5647 123.368 56.2717 122.73ZM50.8944 128.267C54.2502 128.267 56.1422 133.435 56.1123 133.853C56.1123 133.853 55.0568 133.853 54.4494 134.102C54.4494 134.102 54.2801 132.39 51.0239 130.298C51.0239 130.298 52.1292 132.459 50.8546 132.459C49.58 132.459 49.0224 131.015 49.0224 129.99C49.0224 128.715 49.6597 128.277 50.9044 128.277L50.8944 128.267Z" fill="white"/>
<path d="M75.4804 161.437L71.3678 153.62L67.0461 161.437L68.7688 164.643C70.5015 163.767 72.6225 163 75.0025 162.383L75.4904 161.437H75.4804Z" fill="white"/>
<path d="M58.6018 161.437L59.1993 162.542C61.9377 163.209 63.9492 163.906 65.4329 164.554L67.0361 161.427L62.9235 153.61L58.6018 161.427V161.437Z" fill="white"/>
<path d="M50.6257 160.61C51.7012 161.018 53.0156 161.327 54.6288 161.606C55.9133 161.835 57.0884 162.064 58.1539 162.303L58.602 161.437L54.4894 153.62L50.6257 160.61Z" fill="white"/>
<path d="M83.2874 160.252L79.7922 153.62L75.4705 161.437L75.8588 162.163C76.7351 161.954 77.6413 161.765 78.5673 161.596C80.5788 161.247 82.1024 160.829 83.2774 160.252H83.2874Z" fill="white"/>
<path d="M136.293 82.66C135.825 83.138 135.247 83.377 134.58 83.377C133.913 83.377 133.335 83.138 132.867 82.66C132.399 82.192 132.16 81.6145 132.16 80.9373C132.16 80.2602 132.399 79.7026 132.867 79.2246C133.335 78.7566 133.903 78.5176 134.57 78.5176C135.237 78.5176 135.815 78.7566 136.283 79.2246C136.751 79.6926 136.99 80.2602 136.99 80.9373C136.99 81.6145 136.751 82.1821 136.283 82.66H136.293ZM133.106 79.4735C132.698 79.8818 132.499 80.3697 132.499 80.9473C132.499 81.5248 132.698 82.0227 133.106 82.431C133.515 82.8393 134.003 83.0484 134.58 83.0484C135.158 83.0484 135.646 82.8393 136.054 82.431C136.462 82.0227 136.661 81.5248 136.661 80.9473C136.661 80.3697 136.462 79.8818 136.054 79.4735C135.646 79.0653 135.158 78.8561 134.58 78.8561C134.003 78.8561 133.515 79.0653 133.106 79.4735ZM134.53 79.6129C134.859 79.6129 135.098 79.6428 135.257 79.7125C135.536 79.8221 135.666 80.0511 135.666 80.3897C135.666 80.6286 135.576 80.7979 135.407 80.9174C135.317 80.9772 135.188 81.017 135.018 81.0469C135.227 81.0767 135.377 81.1664 135.476 81.3058C135.576 81.4452 135.626 81.5846 135.626 81.714V81.9032C135.626 81.963 135.626 82.0327 135.626 82.1024C135.626 82.1721 135.636 82.2219 135.646 82.2418L135.666 82.2717H135.227C135.227 82.2717 135.227 82.2518 135.227 82.2418C135.227 82.2418 135.227 82.2219 135.227 82.2119V82.1223V81.9132C135.227 81.6045 135.148 81.4054 134.978 81.3058C134.879 81.246 134.71 81.2162 134.461 81.2162H134.092V82.2617H133.624V79.603H134.55L134.53 79.6129ZM135.038 80.0312C134.919 79.9615 134.73 79.9316 134.471 79.9316H134.072V80.8975H134.5C134.7 80.8975 134.849 80.8776 134.949 80.8378C135.128 80.7681 135.227 80.6286 135.227 80.4195C135.227 80.2303 135.168 80.0909 135.048 80.0312H135.038Z" fill="white"/>
</g>
<defs>
<clipPath id="clip0_106_3767">
<rect width="137" height="172.779" fill="white"/>
</clipPath>
</defs>
</svg>
